<svg width="64" height="64" viewBox="0 0 64 64" fill="none" xmlns="http://www.w3.org/2000/svg">
<path d="M27.8635 15.3636C27.8635 17.7736 25.9098 19.7273 23.4999 19.7273C21.0899 19.7273 19.1362 17.7736 19.1362 15.3636" stroke="#F47342" stroke-width="3.5" stroke-linecap="round" stroke-linejoin="round"/>
<path d="M7.5 15.1164C7.5 15.8879 7.80649 16.6278 8.35205 17.1734C8.89761 17.719 9.63755 18.0255 10.4091 18.0255H10.6564C11.1244 18.0273 11.5817 18.166 11.9719 18.4244C12.3622 18.6829 12.6683 19.0498 12.8527 19.48C13.0463 19.9187 13.1041 20.4054 13.0186 20.8772C12.933 21.3491 12.7081 21.7845 12.3727 22.1273L12.2855 22.2145C12.015 22.4847 11.8004 22.8056 11.654 23.1587C11.5076 23.5119 11.4323 23.8904 11.4323 24.2727C11.4323 24.655 11.5076 25.0336 11.654 25.3867C11.8004 25.7399 12.015 26.0607 12.2855 26.3309C12.5556 26.6014 12.8765 26.816 13.2296 26.9624C13.5828 27.1088 13.9613 27.1841 14.3436 27.1841C14.7259 27.1841 15.1045 27.1088 15.4576 26.9624C15.8108 26.816 16.1316 26.6014 16.4018 26.3309L16.4891 26.2436C16.8319 25.9083 17.2673 25.6834 17.7391 25.5978C18.211 25.5123 18.6976 25.57 19.1364 25.7636C19.5883 25.9299 19.9799 26.2282 20.26 26.6199C20.5402 27.0116 20.696 27.4786 20.7073 27.96V28.0909C20.7073 28.8625 21.0138 29.6024 21.5593 30.1479C22.1049 30.6935 22.8448 31 23.6164 31C24.3879 31 25.1278 30.6935 25.6734 30.1479C26.219 29.6024 26.5255 28.8625 26.5255 28.0909V27.8436C26.5273 27.3756 26.666 26.9183 26.9244 26.5281C27.1829 26.1378 27.5498 25.8317 27.98 25.6473C28.4187 25.4537 28.9054 25.3959 29.3772 25.4814C29.8491 25.567 30.2845 25.7919 30.6273 26.1273L30.7145 26.2145C30.9847 26.485 31.3056 26.6996 31.6587 26.846C32.0119 26.9924 32.3904 27.0677 32.7727 27.0677C33.155 27.0677 33.5336 26.9924 33.8867 26.846C34.2399 26.6996 34.5607 26.485 34.8309 26.2145C35.1014 25.9444 35.316 25.6235 35.4624 25.2704C35.6088 24.9172 35.6841 24.5387 35.6841 24.1564C35.6841 23.7741 35.6088 23.3955 35.4624 23.0424C35.316 22.6892 35.1014 22.3684 34.8309 22.0982L34.7436 22.0109C34.4083 21.6681 34.1834 21.2327 34.0978 20.7609C34.0123 20.289 34.07 19.8024 34.2636 19.3636C34.448 18.9334 34.7542 18.5665 35.1444 18.3081C35.5347 18.0496 35.9919 17.911 36.46 17.9091H36.5909C37.3624 17.9091 38.1024 17.6026 38.6479 17.057C39.1935 16.5115 39.5 15.7715 39.5 15" stroke="#F47342" stroke-width="3.5" stroke-linecap="round" stroke-linejoin="round"/>
<path d="M46.5 23V31C46.5 31.5523 46.9477 32 47.5 32H57.5" stroke="#252B33" stroke-width="3.5"/>
<path d="M22.5286 45H39.5C40.0523 45 40.5 44.5523 40.5 44V16C40.5 15.4477 40.0523 15 39.5 15H7.5C6.94772 15 6.5 15.4477 6.5 16V44C6.5 44.5523 6.94771 45 7.5 45H11.8714" stroke="#252B33" stroke-width="3.5"/>
<circle cx="17" cy="44.5" r="4.75" stroke="#252B33" stroke-width="3.5"/>
<circle cx="46" cy="44.5" r="4.75" stroke="#252B33" stroke-width="3.5"/>
<path d="M51 45H56.5C57.0523 45 57.5 44.5523 57.5 44V29.0235C57.5 28.7676 57.4019 28.5215 57.226 28.3357L51.52 22.3123C51.3311 22.1129 51.0686 22 50.794 22H40.5" stroke="#252B33" stroke-width="3.5"/>
</svg>