<svg width="64" height="64" viewBox="0 0 64 64" fill="none" xmlns="http://www.w3.org/2000/svg">
<path d="M25.4649 25C24.5749 25 23.7049 25.2639 22.9648 25.7584C22.2248 26.2529 21.648 26.9557 21.3074 27.7779C20.9669 28.6002 20.8777 29.505 21.0514 30.3779C21.225 31.2508 21.6536 32.0526 22.2829 32.682C22.9123 33.3113 23.7141 33.7399 24.587 33.9135C25.4599 34.0872 26.3647 33.9981 27.187 33.6575C28.0092 33.3169 28.7121 32.7401 29.2065 32.0001C29.701 31.26 29.9649 30.39 29.9649 29.5C29.9649 28.909 29.8485 28.3239 29.6224 27.7779C29.3962 27.232 29.0647 26.7359 28.6469 26.318C28.229 25.9002 27.7329 25.5687 27.187 25.3425C26.641 25.1164 26.0559 25 25.4649 25ZM25.4649 31.9623C24.9779 31.9623 24.5019 31.8179 24.0969 31.5473C23.692 31.2767 23.3764 30.8922 23.1901 30.4423C23.0037 29.9923 22.9549 29.4973 23.05 29.0196C23.145 28.542 23.3795 28.1033 23.7238 27.7589C24.0682 27.4146 24.5069 27.1801 24.9845 27.085C25.4622 26.99 25.9573 27.0388 26.4072 27.2252C26.8571 27.4115 27.2416 27.7271 27.5122 28.132C27.7828 28.537 27.9272 29.013 27.9272 29.5C27.9272 30.153 27.6678 30.7793 27.206 31.2411C26.7442 31.7028 26.1179 31.9623 25.4649 31.9623Z" fill="#F47342"/>
<path d="M55.0349 21.11C52.7349 21.11 50.4449 21.11 48.1449 21.11C47.5526 21.0844 46.9771 20.9052 46.4749 20.59C44.2649 19.18 42.1149 17.72 39.9649 16.33C39.1149 15.78 37.8249 15.56 37.4149 14.8C37.0049 14.04 37.2949 12.68 37.2949 11.59V7H13.3049V15.7C10.0449 16.32 8.96493 18.23 9.78493 21.4C9.81516 21.5282 9.81516 21.6618 9.78493 21.79C9.74423 21.9167 9.67592 22.0329 9.58493 22.13C7.58493 24.03 7.45493 26.03 9.32493 28.29C8.01493 30.7 8.15493 31.71 10.0649 34.12C9.67333 34.7271 9.44866 35.4266 9.41354 36.1482C9.37843 36.8697 9.53412 37.5878 9.86493 38.23C10.2125 38.8651 10.7183 39.3995 11.3333 39.7815C11.9483 40.1634 12.6516 40.38 13.3749 40.41V50.52H25.2749L27.7349 48.06H15.7649V40.4H16.9649V43.7C19.1949 43.47 20.3849 44.41 20.0949 46.88H28.9649L26.6349 44.54C25.4749 44.54 24.1649 44.54 22.8449 44.54C22.6909 44.5097 22.5446 44.4485 22.4149 44.36C22.2842 44.2666 22.1778 44.1432 22.1049 44C21.6439 42.9891 20.8397 42.1743 19.8349 41.7C19.7033 41.6099 19.591 41.4943 19.5049 41.36C19.4222 41.2221 19.3678 41.0691 19.3449 40.91C19.2177 39.97 19.3928 39.0139 19.8449 38.18C20.7849 36.54 20.3749 34.97 18.7549 33.11C19.2821 32.2853 19.5046 31.3023 19.3841 30.331C19.2636 29.3597 18.8076 28.4609 18.0949 27.79C18.5701 27.1422 18.8475 26.3706 18.8937 25.5685C18.9398 24.7664 18.7527 23.9681 18.3549 23.27C19.0267 22.8618 19.5632 22.2646 19.8976 21.5532C20.2319 20.8418 20.3493 20.0477 20.2349 19.27C20.0856 18.6076 19.8397 17.9708 19.5049 17.38C19.2849 16.94 19.2449 16.67 19.7649 16.47C20.3051 16.2382 20.7918 15.8978 21.1949 15.47C21.6284 15.0601 21.9693 14.5623 22.1949 14.01C22.2623 13.8948 22.3505 13.7931 22.4549 13.71C22.5611 13.6318 22.6846 13.5803 22.8149 13.56C24.5649 13.56 26.3249 13.56 28.0749 13.56C28.3449 13.56 28.6149 13.87 28.8749 14.04L28.7649 14.26C27.8449 14.32 26.9249 14.34 26.0149 14.46C25.0516 14.5754 24.1683 15.053 23.5443 15.7959C22.9203 16.5388 22.6023 17.4912 22.6549 18.46C22.6583 19.4602 23.0429 20.4215 23.7304 21.148C24.4179 21.8744 25.3564 22.3115 26.3549 22.37C27.5005 22.44 28.6493 22.44 29.7949 22.37C30.9749 22.27 31.3649 22.69 31.3949 24.08C31.3949 27.08 31.3949 30.08 31.3949 33.08C31.3949 35.14 31.3949 37.19 31.3949 39.25L33.6849 41.54V27.16C34.7949 27.73 35.0049 28.05 35.0049 29.16V40.86L37.3049 38.56C37.3049 35.01 37.3049 31.45 37.3049 27.9C37.2788 27.406 37.0765 26.9378 36.7349 26.58C34.8919 24.9469 33.5121 22.8566 32.7349 20.52C32.5649 19.96 32.2749 19.92 31.8249 19.93C30.1049 19.93 28.3749 19.93 26.6649 19.93C25.4349 19.93 24.7249 19.06 25.0649 17.93C25.2049 17.49 25.7449 16.86 26.0649 16.85C29.1153 16.7248 32.1703 16.7749 35.2149 17C37.7649 17.26 39.7849 19.05 41.9249 20.41C42.9249 21.02 43.7949 21.67 44.7349 22.29C45.6815 23.0946 46.8646 23.5686 48.1049 23.64V27.21H50.4249V23.59H53.7849V39.91H50.4649V29.51H48.1349V39.91C46.9376 39.8814 45.7618 40.2314 44.7749 40.91C44.614 41.224 44.4048 41.5109 44.1549 41.76L39.3249 46.59C40.2549 46.2 41.1649 45.79 42.0549 45.34C43.8749 44.41 45.5449 43.01 47.4549 42.52C49.3649 42.03 51.5149 42.41 53.5549 42.41H56.1249V21.11H55.0349ZM10.3549 25.2C10.3463 24.8376 10.4776 24.4858 10.7215 24.2176C10.9655 23.9495 11.3033 23.7856 11.6649 23.76C12.2676 23.7201 12.8723 23.7201 13.4749 23.76C13.9849 23.76 14.4749 23.76 14.9949 23.76C15.1888 23.7547 15.3818 23.7878 15.5629 23.8574C15.7439 23.927 15.9094 24.0318 16.0497 24.1656C16.1901 24.2995 16.3026 24.4598 16.3807 24.6373C16.4588 24.8148 16.501 25.0061 16.5049 25.2C16.5049 26.02 16.1149 26.71 15.2349 26.76C14.0061 26.835 12.7738 26.835 11.5449 26.76C11.3599 26.7465 11.1799 26.6939 11.0168 26.6056C10.8536 26.5174 10.7111 26.3955 10.5986 26.248C10.4861 26.1005 10.4062 25.9308 10.3642 25.7502C10.3222 25.5695 10.319 25.382 10.3549 25.2ZM10.8349 30.73C10.837 30.3581 10.9799 30.0007 11.2349 29.73C11.4743 29.4644 11.8081 29.3029 12.1649 29.28C12.7676 29.2401 13.3723 29.2401 13.9749 29.28H13.9649C14.5045 29.25 15.0453 29.25 15.5849 29.28C15.9475 29.28 16.2955 29.4226 16.5537 29.6771C16.812 29.9316 16.9597 30.2775 16.9649 30.64C17.0349 31.48 16.6649 32.2 15.8149 32.26C14.5573 32.37 13.2925 32.37 12.0349 32.26C11.8527 32.2458 11.6754 32.1939 11.5142 32.1076C11.3531 32.0213 11.2116 31.9024 11.0988 31.7586C10.986 31.6148 10.9043 31.4491 10.8589 31.272C10.8135 31.0949 10.8053 30.9104 10.8349 30.73ZM16.5949 37.87C15.4528 37.945 14.307 37.945 13.1649 37.87C12.9717 37.8624 12.7817 37.8183 12.6049 37.74C12.4311 37.653 12.2751 37.5343 12.1449 37.39C12.0147 37.2397 11.913 37.0669 11.8449 36.88C11.7746 36.6951 11.7439 36.4975 11.7549 36.3C11.7677 35.9081 11.9304 35.536 12.2095 35.2606C12.4887 34.9852 12.8629 34.8275 13.2549 34.82C13.7849 34.82 14.3349 34.82 14.8749 34.82C15.4149 34.82 15.9549 34.82 16.4949 34.82C16.6935 34.8184 16.8904 34.8574 17.0734 34.9345C17.2564 35.0116 17.4218 35.1252 17.5594 35.2684C17.697 35.4116 17.804 35.5814 17.8737 35.7674C17.9434 35.9534 17.9745 36.1516 17.9649 36.35C17.9845 36.5418 17.9636 36.7356 17.9037 36.9188C17.8438 37.1021 17.7462 37.2707 17.6171 37.4139C17.4881 37.5571 17.3304 37.6717 17.1543 37.7503C16.9783 37.8288 16.7877 37.8696 16.5949 37.87ZM16.7249 21.17C15.497 21.27 14.2629 21.27 13.0349 21.17C12.8449 21.166 12.6581 21.1206 12.4873 21.0372C12.3166 20.9537 12.1661 20.8341 12.0462 20.6866C11.9263 20.5391 11.84 20.3674 11.7931 20.1832C11.7463 19.999 11.7401 19.8068 11.7749 19.62C11.7776 19.2415 11.9291 18.8793 12.1967 18.6117C12.4643 18.3441 12.8265 18.1926 13.2049 18.19C13.7849 18.19 14.3549 18.19 14.9249 18.19C15.4949 18.19 16.0049 18.19 16.5349 18.19C16.7278 18.187 16.9193 18.2237 17.0974 18.2976C17.2756 18.3716 17.4366 18.4814 17.5707 18.6201C17.7047 18.7588 17.8089 18.9236 17.8767 19.1042C17.9445 19.2847 17.9745 19.4773 17.9649 19.67C17.9933 19.8517 17.9829 20.0374 17.9342 20.2148C17.8855 20.3922 17.7997 20.5573 17.6825 20.699C17.5653 20.8408 17.4193 20.9561 17.2543 21.0373C17.0892 21.1185 16.9088 21.1637 16.7249 21.17ZM34.8749 14.3C33.8749 14.3 32.9649 14.3 32.0049 14.3C31.4549 14.3 30.6249 13.03 30.5449 12.18C30.5449 11.86 30.5449 11.53 30.5449 11.18H20.3249C20.1943 12.0666 19.892 12.9192 19.4349 13.69C18.9349 14.24 17.9349 14.3 16.9949 14.63L16.8949 15.76H15.6949C15.6949 14.26 15.6949 12.83 15.6949 11.39C15.6949 9.39 15.6949 9.39 17.6949 9.39H34.8749V14.3Z" fill="#252B33"/>
<path fill-rule="evenodd" clip-rule="evenodd" d="M35.3749 43.25L34.9349 43.69L33.9349 44.69L34.9349 45.69L36.1649 46.92L37.5849 45.5L35.3749 43.25ZM32.9649 48.06L31.7749 46.88L30.6049 48.06L30.3649 48.29L32.5749 50.5L33.9649 49.09L32.9649 48.06ZM33.5849 43.66H33.6449H33.5849Z" fill="white"/>
<path fill-rule="evenodd" clip-rule="evenodd" d="M42.8549 53.5598L36.1649 46.8698L37.5849 45.4598L38.8649 44.1798L42.7249 40.3198C43.0179 40.0267 43.1826 39.6293 43.1826 39.2148C43.1826 38.8003 43.0179 38.4029 42.7249 38.1098C42.4318 37.8167 42.0343 37.6521 41.6199 37.6521C41.2054 37.6521 40.8079 37.8167 40.5149 38.1098L37.2349 41.3898L35.3749 43.2498L34.9349 43.6898L33.9349 44.6898L27.3949 38.0998C27.2498 37.9547 27.0775 37.8396 26.8879 37.761C26.6983 37.6825 26.4951 37.6421 26.2899 37.6421C26.0847 37.6421 25.8815 37.6825 25.6919 37.761C25.5023 37.8396 25.33 37.9547 25.1849 38.0998C25.0398 38.2449 24.9247 38.4172 24.8461 38.6068C24.7676 38.7964 24.7272 38.9996 24.7272 39.2048C24.7272 39.41 24.7676 39.6132 24.8461 39.8028C24.9247 39.9924 25.0398 40.1647 25.1849 40.3098L30.4149 45.5398L30.5849 45.7198L30.9049 46.0198L31.2649 46.3898L31.7449 46.8798L30.5749 48.0598L30.3349 48.2898L28.1149 50.5198L25.1149 53.5198C24.9626 53.6631 24.8407 53.8356 24.7564 54.027C24.6721 54.2184 24.6272 54.4248 24.6242 54.6339C24.6213 54.843 24.6605 55.0506 24.7394 55.2443C24.8183 55.438 24.9353 55.6138 25.0835 55.7613C25.2317 55.9089 25.4081 56.0251 25.6021 56.1031C25.7962 56.1812 26.0039 56.2194 26.213 56.2155C26.4221 56.2116 26.6283 56.1657 26.8193 56.0806C27.0103 55.9954 27.1822 55.8727 27.3249 55.7198L32.5749 50.4698L33.9649 49.0898L34.4549 49.5698L40.6549 55.7698C40.9479 56.0629 41.3454 56.2275 41.7599 56.2275C42.1743 56.2275 42.5718 56.0629 42.8649 55.7698C43.1579 55.4767 43.3226 55.0793 43.3226 54.6648C43.3226 54.2503 43.1579 53.8529 42.8649 53.5598H42.8549Z" fill="#F47342"/>
</svg>
