<svg width="64" height="64" viewBox="0 0 64 64" fill="none" xmlns="http://www.w3.org/2000/svg">
<rect width="64" height="64" rx="32" fill="#F47342"/>
<rect x="17.5" y="9.5" width="28.3846" height="45" rx="4.5" stroke="white" stroke-width="3"/>
<path d="M27.0769 11.6923H36.3077" stroke="white" stroke-width="3" stroke-linecap="round"/>
<path d="M31.6923 40.3077C36.2805 40.3077 40 36.5882 40 32C40 27.4118 36.2805 23.6923 31.6923 23.6923C27.1041 23.6923 23.3846 27.4118 23.3846 32C23.3846 36.5882 27.1041 40.3077 31.6923 40.3077Z" stroke="white" stroke-width="2.5" stroke-linecap="round" stroke-linejoin="round"/>
<path d="M31.6923 33.8462C32.7119 33.8462 33.5385 33.0196 33.5385 32C33.5385 30.9804 32.7119 30.1538 31.6923 30.1538C30.6727 30.1538 29.8462 30.9804 29.8462 32C29.8462 33.0196 30.6727 33.8462 31.6923 33.8462Z" stroke="white" stroke-width="2" stroke-linecap="round" stroke-linejoin="round"/>
<path d="M31.6923 33.8462V40.3077M29.8462 32L23.6154 30.1538M33.5385 32L39.7692 30.1538" stroke="white" stroke-width="2" stroke-linecap="round" stroke-linejoin="round"/>
</svg>