<svg width="143" height="46" viewBox="0 0 143 46" fill="none" xmlns="http://www.w3.org/2000/svg">
<mask id="path-1-inside-1_290_408" fill="white">
<path fill-rule="evenodd" clip-rule="evenodd" d="M122.432 46C133.791 46 143 36.7912 143 25.4316C143 14.072 133.791 4.8632 122.432 4.8632H20.5684C19.076 4.8632 17.6207 5.02214 16.2186 5.32403L4.4866 -0.000221252L5.24382 11.7121C1.98305 15.3519 3.05176e-05 20.1602 3.05176e-05 25.4316C3.05176e-05 36.7912 9.20883 46 20.5684 46H122.432Z"/>
</mask>
<path fill-rule="evenodd" clip-rule="evenodd" d="M122.432 46C133.791 46 143 36.7912 143 25.4316C143 14.072 133.791 4.8632 122.432 4.8632H20.5684C19.076 4.8632 17.6207 5.02214 16.2186 5.32403L4.4866 -0.000221252L5.24382 11.7121C1.98305 15.3519 3.05176e-05 20.1602 3.05176e-05 25.4316C3.05176e-05 36.7912 9.20883 46 20.5684 46H122.432Z" fill="white"/>
<path d="M16.2186 5.32403L15.3921 7.14526L15.9937 7.41829L16.6395 7.27923L16.2186 5.32403ZM4.4866 -0.000221252L5.31313 -1.82145L2.27556 -3.19997L2.49077 0.128811L4.4866 -0.000221252ZM5.24382 11.7121L6.73346 13.0467L7.29384 12.4212L7.23965 11.5831L5.24382 11.7121ZM141 25.4316C141 35.6866 132.687 44 122.432 44V48C134.896 48 145 37.8958 145 25.4316H141ZM122.432 6.8632C132.687 6.8632 141 15.1766 141 25.4316H145C145 12.9674 134.896 2.8632 122.432 2.8632V6.8632ZM20.5684 6.8632H122.432V2.8632H20.5684V6.8632ZM16.6395 7.27923C17.9042 7.00694 19.2184 6.8632 20.5684 6.8632V2.8632C18.9336 2.8632 17.3372 3.03735 15.7976 3.36884L16.6395 7.27923ZM3.66008 1.82101L15.3921 7.14526L17.0451 3.5028L5.31313 -1.82145L3.66008 1.82101ZM7.23965 11.5831L6.48244 -0.129253L2.49077 0.128811L3.24799 11.8412L7.23965 11.5831ZM2.00003 25.4316C2.00003 20.6715 3.78856 16.3339 6.73346 13.0467L3.75418 10.3776C0.177536 14.37 -1.99997 19.6489 -1.99997 25.4316H2.00003ZM20.5684 44C10.3134 44 2.00003 35.6866 2.00003 25.4316H-1.99997C-1.99997 37.8958 8.10426 48 20.5684 48V44ZM122.432 44H20.5684V48H122.432V44Z" fill="url(#paint0_linear_290_408)" mask="url(#path-1-inside-1_290_408)"/>
<path d="M57.2619 18.544V19.952H52.0459V23.584H56.7499V24.96H52.0459V28.592H57.2619V30H50.5739V18.544H57.2619ZM62.5615 26.016L65.3615 30H63.6335L61.6975 27.104L59.7935 30H58.0655L60.8335 26.016L58.1295 22.16H59.7935L61.7295 24.928L63.5695 22.16H65.2975L62.5615 26.016ZM70.2204 28.912C70.9244 28.912 71.5164 28.6453 71.9964 28.112C72.4764 27.5893 72.7164 26.912 72.7164 26.08C72.7164 25.2587 72.4764 24.5813 71.9964 24.048C71.5164 23.5147 70.9244 23.248 70.2204 23.248C69.5057 23.248 68.9084 23.5147 68.4284 24.048C67.959 24.5813 67.7244 25.2587 67.7244 26.08C67.7244 26.912 67.959 27.5947 68.4284 28.128C68.9084 28.6507 69.5057 28.912 70.2204 28.912ZM70.4604 30.256C69.8844 30.256 69.3564 30.1333 68.8764 29.888C68.407 29.6427 68.0444 29.3173 67.7884 28.912H67.7244L67.7884 30V33.456H66.3164V22.16H67.7244V23.248H67.7884C68.0444 22.8427 68.407 22.5173 68.8764 22.272C69.3564 22.0267 69.8844 21.904 70.4604 21.904C71.495 21.904 72.3697 22.3093 73.0844 23.12C73.8204 23.9413 74.1884 24.928 74.1884 26.08C74.1884 27.2427 73.8204 28.2293 73.0844 29.04C72.3697 29.8507 71.495 30.256 70.4604 30.256ZM79.0566 30.256C77.9046 30.256 76.9553 29.8613 76.2086 29.072C75.462 28.2827 75.0886 27.2853 75.0886 26.08C75.0886 24.8853 75.4513 23.8933 76.1766 23.104C76.902 22.304 77.83 21.904 78.9606 21.904C80.1233 21.904 81.046 22.2827 81.7286 23.04C82.422 23.7867 82.7686 24.8373 82.7686 26.192L82.7526 26.352H76.5926C76.614 27.12 76.87 27.7387 77.3606 28.208C77.8513 28.6773 78.438 28.912 79.1206 28.912C80.0593 28.912 80.7953 28.4427 81.3286 27.504L82.6406 28.144C82.2886 28.8053 81.798 29.3227 81.1686 29.696C80.55 30.0693 79.846 30.256 79.0566 30.256ZM76.7046 25.136H81.2006C81.158 24.592 80.934 24.144 80.5286 23.792C80.134 23.4293 79.6006 23.248 78.9286 23.248C78.374 23.248 77.894 23.4187 77.4886 23.76C77.094 24.1013 76.8326 24.56 76.7046 25.136ZM85.5868 30H84.1148V22.16H85.5228V23.44H85.5868C85.7361 23.024 86.0401 22.672 86.4988 22.384C86.9681 22.0853 87.4268 21.936 87.8748 21.936C88.3014 21.936 88.6641 22 88.9628 22.128L88.5148 23.552C88.3334 23.4773 88.0454 23.44 87.6508 23.44C87.0961 23.44 86.6108 23.664 86.1948 24.112C85.7894 24.56 85.5868 25.0827 85.5868 25.68V30ZM91.8313 19.456C91.8313 19.744 91.7299 19.9893 91.5273 20.192C91.3246 20.3947 91.0793 20.496 90.7913 20.496C90.5033 20.496 90.2579 20.3947 90.0553 20.192C89.8526 19.9893 89.7513 19.744 89.7513 19.456C89.7513 19.168 89.8526 18.9227 90.0553 18.72C90.2579 18.5173 90.5033 18.416 90.7913 18.416C91.0793 18.416 91.3246 18.5173 91.5273 18.72C91.7299 18.9227 91.8313 19.168 91.8313 19.456ZM91.5273 22.16V30H90.0553V22.16H91.5273ZM96.8848 30.256C95.7328 30.256 94.7834 29.8613 94.0368 29.072C93.2901 28.2827 92.9168 27.2853 92.9168 26.08C92.9168 24.8853 93.2794 23.8933 94.0048 23.104C94.7301 22.304 95.6581 21.904 96.7888 21.904C97.9514 21.904 98.8741 22.2827 99.5568 23.04C100.25 23.7867 100.597 24.8373 100.597 26.192L100.581 26.352H94.4208C94.4421 27.12 94.6981 27.7387 95.1888 28.208C95.6794 28.6773 96.2661 28.912 96.9488 28.912C97.8874 28.912 98.6234 28.4427 99.1568 27.504L100.469 28.144C100.117 28.8053 99.6261 29.3227 98.9968 29.696C98.3781 30.0693 97.6741 30.256 96.8848 30.256ZM94.5328 25.136H99.0288C98.9861 24.592 98.7621 24.144 98.3568 23.792C97.9621 23.4293 97.4288 23.248 96.7568 23.248C96.2021 23.248 95.7221 23.4187 95.3168 23.76C94.9221 24.1013 94.6608 24.56 94.5328 25.136ZM101.943 22.16H103.351V23.248H103.415C103.639 22.864 103.98 22.544 104.439 22.288C104.908 22.032 105.394 21.904 105.895 21.904C106.855 21.904 107.591 22.1813 108.103 22.736C108.626 23.28 108.887 24.0587 108.887 25.072V30H107.415V25.168C107.383 23.888 106.738 23.248 105.479 23.248C104.892 23.248 104.402 23.488 104.007 23.968C103.612 24.4373 103.415 25.0027 103.415 25.664V30H101.943V22.16ZM114.199 30.256C113.036 30.256 112.071 29.8613 111.303 29.072C110.545 28.2613 110.167 27.264 110.167 26.08C110.167 24.8747 110.545 23.8773 111.303 23.088C112.071 22.2987 113.036 21.904 114.199 21.904C114.999 21.904 115.697 22.1067 116.295 22.512C116.892 22.9067 117.34 23.456 117.639 24.16L116.295 24.72C115.879 23.7387 115.148 23.248 114.103 23.248C113.431 23.248 112.849 23.52 112.359 24.064C111.879 24.608 111.639 25.28 111.639 26.08C111.639 26.88 111.879 27.552 112.359 28.096C112.849 28.64 113.431 28.912 114.103 28.912C115.18 28.912 115.937 28.4213 116.375 27.44L117.687 28C117.399 28.704 116.945 29.2587 116.327 29.664C115.719 30.0587 115.009 30.256 114.199 30.256ZM122.416 30.256C121.264 30.256 120.315 29.8613 119.568 29.072C118.821 28.2827 118.448 27.2853 118.448 26.08C118.448 24.8853 118.811 23.8933 119.536 23.104C120.261 22.304 121.189 21.904 122.32 21.904C123.483 21.904 124.405 22.2827 125.088 23.04C125.781 23.7867 126.128 24.8373 126.128 26.192L126.112 26.352H119.952C119.973 27.12 120.229 27.7387 120.72 28.208C121.211 28.6773 121.797 28.912 122.48 28.912C123.419 28.912 124.155 28.4427 124.688 27.504L126 28.144C125.648 28.8053 125.157 29.3227 124.528 29.696C123.909 30.0693 123.205 30.256 122.416 30.256ZM120.064 25.136H124.56C124.517 24.592 124.293 24.144 123.888 23.792C123.493 23.4293 122.96 23.248 122.288 23.248C121.733 23.248 121.253 23.4187 120.848 23.76C120.453 24.1013 120.192 24.56 120.064 25.136Z" fill="#252B33"/>
<path d="M39.116 17.1675C38.4722 17.7482 37.1708 19.0061 35.0636 19.17C35.0478 19.1712 35.0329 19.1782 35.022 19.1896C35.011 19.2011 35.0047 19.2162 35.0043 19.2321C35.0028 19.2924 35.0253 19.3508 35.0668 19.3945C35.1083 19.4383 35.1654 19.4638 35.2257 19.4655C36.252 19.4989 37.2635 19.1654 38.1628 18.6782C34.7903 21.6848 31.4938 24.9351 28.1593 27.9871C28.5483 25.6205 29.3856 23.3234 29.5616 20.916C29.5616 20.916 29.5616 20.9096 29.5616 20.9068C29.5641 20.7865 29.5344 20.6677 29.4756 20.5627C29.4168 20.4577 29.3311 20.3703 29.2272 20.3095C29.1234 20.2487 29.0052 20.2168 28.8849 20.2169C28.7646 20.217 28.6465 20.2493 28.5427 20.3103C28.0648 20.5881 27.6887 21.0763 27.2858 21.4079C23.4206 25.2731 19.6433 29.4922 16.0207 33.5937C16.0121 33.6032 16.006 33.6146 16.0027 33.6269C15.9994 33.6393 15.9991 33.6522 16.0018 33.6647C16.0046 33.6772 16.0102 33.6889 16.0183 33.6988C16.0264 33.7086 16.0368 33.7164 16.0485 33.7215C16.0722 33.732 16.0985 33.7351 16.124 33.7303C16.1495 33.7255 16.1729 33.7131 16.1911 33.6947C20.313 29.5126 24.2829 25.1675 28.6678 21.2745C28.3047 23.5679 27.3525 26.1623 26.9357 28.4595C26.8959 28.7373 26.768 29.1643 26.9894 29.3857C27.9277 30.3175 29.7469 28.1056 30.4166 27.6203C33.2565 24.9202 35.9148 22.0155 38.4546 19.0367C38.2916 19.999 38.362 21.5774 38.8566 21.9145C39.0076 22.0183 39.0724 21.8979 39.0715 21.8312C39.0567 19.4831 39.4133 19.1052 39.8051 17.7473C39.9811 17.1378 39.5643 16.7655 39.116 17.1675Z" fill="#F47342"/>
<path d="M17.2387 29.4126C18.5539 27.5615 20.1311 25.9112 21.9209 24.5136C21.9293 24.5078 21.9396 24.5051 21.9498 24.506C21.96 24.507 21.9696 24.5115 21.9768 24.5188C21.984 24.5262 21.9883 24.5358 21.9891 24.546C21.9899 24.5562 21.9871 24.5664 21.9811 24.5748C20.5377 26.3136 18.9743 27.9494 17.3026 29.47C17.2945 29.4765 17.2845 29.4799 17.2741 29.4796C17.2638 29.4793 17.2539 29.4754 17.2462 29.4685C17.2386 29.4616 17.2336 29.4522 17.2322 29.4419C17.2308 29.4317 17.2331 29.4213 17.2387 29.4126Z" fill="#F47342"/>
<path d="M22.3257 24.1554C22.3713 24.0145 22.447 23.8853 22.5477 23.7766C22.6483 23.668 22.7714 23.5826 22.9083 23.5264C22.9187 23.5222 22.9301 23.5213 22.941 23.524C22.9519 23.5266 22.9616 23.5327 22.9688 23.5412C22.976 23.5498 22.9803 23.5604 22.9811 23.5716C22.9819 23.5827 22.9791 23.5938 22.9732 23.6033C22.8146 23.8302 22.6254 24.034 22.4109 24.2091C22.4024 24.2164 22.3917 24.2207 22.3805 24.2215C22.3693 24.2223 22.3581 24.2195 22.3486 24.2135C22.3391 24.2075 22.3318 24.1986 22.3276 24.1882C22.3235 24.1777 22.3229 24.1662 22.3257 24.1554Z" fill="#F47342"/>
<path d="M37.4348 22.2822C36.167 24.1662 34.6323 25.8561 32.8786 27.2988C32.8706 27.3064 32.86 27.3107 32.849 27.3106C32.838 27.3106 32.8274 27.3063 32.8195 27.2986C32.8116 27.2909 32.8069 27.2805 32.8065 27.2695C32.8062 27.2585 32.8101 27.2477 32.8174 27.2395C34.2158 25.4644 35.7367 23.7893 37.3691 22.2266C37.3769 22.2198 37.387 22.2159 37.3974 22.2158C37.4078 22.2157 37.4179 22.2194 37.4259 22.2261C37.4338 22.2328 37.4391 22.2422 37.4408 22.2525C37.4424 22.2628 37.4403 22.2733 37.4348 22.2822Z" fill="#F47342"/>
<path d="M32.4831 27.6671C32.4409 27.809 32.3684 27.94 32.2705 28.0511C32.1726 28.1621 32.0517 28.2504 31.9162 28.31C31.906 28.3144 31.8946 28.3155 31.8837 28.3131C31.8729 28.3107 31.863 28.305 31.8556 28.2966C31.8482 28.2883 31.8436 28.2779 31.8425 28.2668C31.8414 28.2557 31.8439 28.2446 31.8495 28.2349C32.0022 28.0042 32.1865 27.7959 32.3969 27.6162C32.4051 27.6083 32.4156 27.6033 32.4269 27.6019C32.4382 27.6006 32.4496 27.603 32.4594 27.6088C32.4692 27.6146 32.4768 27.6234 32.4811 27.634C32.4854 27.6445 32.4861 27.6562 32.4831 27.6671Z" fill="#F47342"/>
<defs>
<linearGradient id="paint0_linear_290_408" x1="17.0101" y1="4.05882" x2="140.269" y2="27.4616" gradientUnits="userSpaceOnUse">
<stop stop-color="#F0F0F0"/>
<stop offset="1" stop-color="#F0F0F0" stop-opacity="0.46"/>
</linearGradient>
</defs>
</svg>
