<svg width="64" height="64" viewBox="0 0 64 64" fill="none" xmlns="http://www.w3.org/2000/svg">
<path d="M23.7028 33.0748C19.1468 30.8389 16.0105 26.1539 16.0105 20.7363C16.0105 13.1499 22.1604 7 29.7468 7C37.3331 7 43.483 13.1499 43.483 20.7363C43.483 24.7154 41.2037 28.4914 38.5 31" stroke="#F47342" stroke-width="3.5"/>
<path d="M25.9008 56.9999V54.0331C25.9008 52.833 25.1857 51.7484 24.0826 51.2756L18.9594 49.08C18.4639 48.8676 17.9283 48.765 17.396 48.6794C15.9392 48.4451 13.0525 47.514 13.2634 43.8131C13.5146 39.4049 18.14 39.3648 19.1242 39.4064C19.2485 39.4117 19.3697 39.4175 19.4941 39.4175H23.8019C24.3542 39.4175 24.8019 38.9698 24.8019 38.4175V20.3545C24.8019 19.1853 25.2347 18.0575 26.0169 17.1885L26.1198 17.0741C28.0198 14.9629 31.3598 15.0599 33.1341 17.2778V17.2778C33.787 18.0938 34.1426 19.1077 34.1426 20.1527V26.9401C34.1426 29.3843 35.9097 31.4703 38.3206 31.8721L48.1193 33.5052C49.5659 33.7463 50.6261 34.9979 50.6261 36.4644V43.0428C50.6261 43.5517 50.529 44.0559 50.34 44.5284L47.6155 51.3397C47.4265 51.8121 47.3294 52.3163 47.3294 52.8252V56.9999" stroke="#252B33" stroke-width="3.5" stroke-linecap="round" stroke-linejoin="round"/>
</svg>
