<svg width="64" height="64" viewBox="0 0 64 64" fill="none" xmlns="http://www.w3.org/2000/svg">
<path d="M48.9506 43.1515C45.2755 50.5936 34.2564 56.0781 32.0484 57.1188C31.798 57.2368 31.5215 57.2388 31.2691 57.1252C28.9924 56.1007 17.4374 50.609 13.8468 43.1515C10.3884 35.9687 10.9573 19.9808 11.1702 15.849C11.1986 15.2972 11.6729 14.8864 12.2252 14.8982C14.1458 14.9392 18.4322 14.862 21.4439 13.5492C24.6814 12.138 29.3918 8.7049 31.0531 7.46029C31.4137 7.19021 31.9102 7.18735 32.2739 7.4531C33.9691 8.69161 38.8125 12.1352 42.1394 13.5492C45.217 14.8572 49.5924 14.9386 51.5727 14.8986C52.1429 14.8871 52.6264 15.3251 52.6293 15.8954C52.6499 20.0991 52.4846 35.9953 48.9506 43.1515Z" stroke="#252B33" stroke-width="3.5"/>
<path d="M38.0893 31.4878H24.8862C23.8445 31.4878 23 32.3323 23 33.374V39.9755C23 41.0172 23.8445 41.8617 24.8862 41.8617H38.0893C39.131 41.8617 39.9755 41.0172 39.9755 39.9755V33.374C39.9755 32.3323 39.131 31.4878 38.0893 31.4878Z" stroke="#F47342" stroke-width="3.5" stroke-linecap="round" stroke-linejoin="round"/>
<path d="M26.772 31.4877V27.7154C26.772 26.4648 27.2688 25.2654 28.1531 24.3811C29.0374 23.4968 30.2368 23 31.4874 23C32.738 23 33.9374 23.4968 34.8217 24.3811C35.706 25.2654 36.2028 26.4648 36.2028 27.7154V31.4877" stroke="#F47342" stroke-width="3.5" stroke-linecap="round" stroke-linejoin="round"/>
</svg>
