<svg width="64" height="64" viewBox="0 0 64 64" fill="none" xmlns="http://www.w3.org/2000/svg">
<path d="M38.86 48.3036C38.2012 48.586 37.6394 49.0548 37.2437 49.6523C36.848 50.2499 36.6356 50.9501 36.6327 51.6668V52.0455C36.6327 53.2269 36.1634 54.3599 35.328 55.1953C34.4926 56.0307 33.3596 56.5 32.1782 56.5C30.9968 56.5 29.8637 56.0307 29.0283 55.1953C28.193 54.3599 27.7236 53.2269 27.7236 52.0455V51.845C27.7064 51.1078 27.4678 50.3928 27.0388 49.793C26.6098 49.1932 26.0103 48.7364 25.3182 48.4818C24.6464 48.1853 23.9012 48.0969 23.1787 48.2279C22.4562 48.3589 21.7895 48.7033 21.2645 49.2168L21.1309 49.3505C20.7172 49.7646 20.2259 50.0932 19.6851 50.3174C19.1444 50.5415 18.5647 50.6569 17.9793 50.6569C17.3939 50.6569 16.8143 50.5415 16.2735 50.3174C15.7327 50.0932 15.2414 49.7646 14.8277 49.3505C14.4136 48.9367 14.085 48.4455 13.8608 47.9047C13.6367 47.3639 13.5213 46.7843 13.5213 46.1989C13.5213 45.6135 13.6367 45.0338 13.8608 44.493C14.085 43.9523 14.4136 43.461 14.8277 43.0473L14.9614 42.9136C15.4748 42.3887 15.8193 41.722 15.9503 40.9995C16.0813 40.277 15.9928 39.5318 15.6964 38.86C15.414 38.2012 14.9452 37.6394 14.3477 37.2437C13.7501 36.848 13.0499 36.6356 12.3332 36.6327H11.9545C10.7731 36.6327 9.6401 36.1634 8.80471 35.328C7.96932 34.4926 7.5 33.3596 7.5 32.1782C7.5 30.9968 7.96932 29.8637 8.80471 29.0283C9.6401 28.193 10.7731 27.7236 11.9545 27.7236H12.155C12.8922 27.7064 13.6072 27.4678 14.207 27.0388C14.8068 26.6098 15.2636 26.0103 15.5182 25.3182C15.8147 24.6464 15.9031 23.9012 15.7721 23.1787C15.6411 22.4562 15.2966 21.7895 14.7832 21.2645L14.6495 21.1309C14.2354 20.7172 13.9068 20.2259 13.6826 19.6851C13.4585 19.1444 13.3431 18.5647 13.3431 17.9793C13.3431 17.3939 13.4585 16.8143 13.6826 16.2735C13.9068 15.7327 14.2354 15.2414 14.6495 14.8277C15.0633 14.4136 15.5545 14.085 16.0953 13.8608C16.6361 13.6367 17.2157 13.5213 17.8011 13.5213C18.3865 13.5213 18.9662 13.6367 19.507 13.8608C20.0477 14.085 20.539 14.4136 20.9527 14.8277L21.0864 14.9614C21.6113 15.4748 22.278 15.8193 23.0005 15.9503C23.723 16.0813 24.4682 15.9928 25.14 15.6964H25.3182C25.9769 15.414 26.5388 14.9452 26.9345 14.3477C27.3302 13.7501 27.5426 13.0499 27.5455 12.3332V11.9545C27.5455 10.7731 28.0148 9.6401 28.8502 8.80471C29.6856 7.96932 30.8186 7.5 32 7.5C33.1814 7.5 34.3144 7.96932 35.1498 8.80471C35.9852 9.6401 36.4545 10.7731 36.4545 11.9545V12.155C36.4574 12.8717 36.6698 13.5719 37.0655 14.1695C37.4612 14.767 38.0231 15.2358 38.6818 15.5182C39.3536 15.8147 40.0988 15.9031 40.8213 15.7721C41.5438 15.6411 42.2105 15.2966 42.7355 14.7832L42.8691 14.6495C43.2828 14.2354 43.7741 13.9068 44.3149 13.6826C44.8556 13.4585 45.4353 13.3431 46.0207 13.3431C46.6061 13.3431 47.1857 13.4585 47.7265 13.6826C48.2673 13.9068 48.7586 14.2354 49.1723 14.6495C49.5864 15.0633 49.915 15.5545 50.1392 16.0953C50.3633 16.6361 50.4787 17.2157 50.4787 17.8011C50.4787 18.3865 50.3633 18.9662 50.1392 19.507C49.915 20.0477 49.5864 20.539 49.1723 20.9527L49.0386 21.0864C48.5252 21.6113 48.1807 22.278 48.0497 23.0005C47.9187 23.723 48.0071 24.4682 48.3036 25.14V25.3182C48.586 25.9769 49.0548 26.5388 49.6523 26.9345C50.2499 27.3302 50.9501 27.5426 51.6668 27.5455H52.0455C53.2269 27.5455 54.3599 28.0148 55.1953 28.8502C56.0307 29.6856 56.5 30.8186 56.5 32C56.5 33.1814 56.0307 34.3144 55.1953 35.1498C54.3599 35.9852 53.2269 36.4545 52.0455 36.4545H51.845C51.1283 36.4574 50.4281 36.6698 49.8305 37.0655" stroke="#252B33" stroke-width="3.5" stroke-linecap="round" stroke-linejoin="round"/>
<path d="M35.3959 30.1656L31.4727 34.0923C31.0948 34.4705 30.4862 34.4846 30.0912 34.1241L25.5522 29.982C25.2314 29.6892 24.7548 29.6396 24.4519 29.9509C23.5205 30.9082 22.1525 33.4135 26.4041 37.9732C28.8316 40.5766 33.7922 39.6127 35.4873 39.1852C35.8493 39.0939 36.2358 39.1904 36.4995 39.4547L49.8335 52.8126C49.8847 52.8639 49.9413 52.9097 50.0053 52.944C50.435 53.1744 52.242 53.9751 53.6528 52.0386C55.1371 50.001 53.8884 48.1077 53.6808 47.82C53.6619 47.7937 53.6415 47.7706 53.6191 47.7473L41.0445 34.6549C40.807 34.4076 40.712 34.0583 40.7759 33.7214C41.0733 32.1545 41.7093 27.5481 39.4723 25.2344C35.7428 21.3772 32.8309 22.3397 31.5337 23.1372C31.0864 23.4121 31.0713 24.0031 31.4249 24.3913L35.4278 28.7854C35.7874 29.1801 35.7734 29.7878 35.3959 30.1656Z" stroke="#F47342" stroke-width="3.5"/>
</svg>
