<svg width="64" height="64" viewBox="0 0 64 64" fill="none" xmlns="http://www.w3.org/2000/svg">
<path d="M14.6365 14.9091C19.0999 9.9991 24.4954 8 31.7148 8C45.1774 8 56.091 18.7452 56.091 32C56.091 45.2548 45.1774 56 31.7148 56C24.4954 56 19.0999 54.0009 14.6365 49.0909" stroke="#252B33" stroke-width="3.5" stroke-linecap="round"/>
<path d="M8 32C8 37.5228 12.4301 42 17.895 42C22.0724 42 24.6453 39.3838 26.0968 35.6842H30.6774L33.0645 33.1765L36.0484 35.6842L38.4355 33.1765L40.8226 35.6842L45 31.4118L40.8226 27.5292H25.7484C24.1243 24.2508 21.7697 22 17.895 22C12.4301 22 8 26.4772 8 32Z" stroke="#F47342" stroke-width="3.5" stroke-linejoin="round"/>
<circle cx="17.75" cy="31.75" r="1.75" fill="#F47342"/>
</svg>
