<svg width="64" height="64" viewBox="0 0 64 64" fill="none" xmlns="http://www.w3.org/2000/svg">
<path d="M31.9187 20.5826V41.8869" stroke="#F47342" stroke-width="3.5" stroke-linecap="round" stroke-linejoin="round"/>
<path d="M36.7608 24.4561H29.498C28.5991 24.4561 27.737 24.8132 27.1014 25.4488C26.4657 26.0844 26.1086 26.9465 26.1086 27.8454C26.1086 28.7443 26.4657 29.6064 27.1014 30.2421C27.737 30.8777 28.5991 31.2348 29.498 31.2348H34.3399C35.2388 31.2348 36.1009 31.5919 36.7365 32.2275C37.3721 32.8631 37.7292 33.7252 37.7292 34.6241C37.7292 35.523 37.3721 36.3851 36.7365 37.0207C36.1009 37.6563 35.2388 38.0134 34.3399 38.0134H26.1086" stroke="#F47342" stroke-width="3.5" stroke-linecap="round" stroke-linejoin="round"/>
<path d="M17.9959 30.8702V8.79999C17.9959 8.2477 18.4436 7.79999 18.9959 7.79999H44.9389C45.4912 7.79999 45.9389 8.2477 45.9389 8.79999V30.8702C45.9389 31.4224 46.3866 31.8702 46.9389 31.8702H53.5785C54.4611 31.8702 54.9109 32.9301 54.2977 33.5649L32.5765 56.0519C32.182 56.4602 31.5272 56.4586 31.1347 56.0484L9.61834 33.5615C9.00974 32.9255 9.46056 31.8702 10.3409 31.8702H16.9959C17.5482 31.8702 17.9959 31.4224 17.9959 30.8702Z" stroke="#252B33" stroke-width="3.5"/>
</svg>
