<svg width="64" height="64" viewBox="0 0 64 64" fill="none" xmlns="http://www.w3.org/2000/svg">
<path d="M31.9998 21V43" stroke="#F47342" stroke-width="3.5" stroke-linecap="round" stroke-linejoin="round"/>
<path d="M37 25.0001H29.5C28.5717 25.0001 27.6815 25.3688 27.0251 26.0252C26.3687 26.6816 26 27.5718 26 28.5001C26 29.4283 26.3687 30.3186 27.0251 30.9749C27.6815 31.6313 28.5717 32.0001 29.5 32.0001H34.5C35.4283 32.0001 36.3185 32.3688 36.9749 33.0252C37.6313 33.6816 38 34.5718 38 35.5001C38 36.4283 37.6313 37.3186 36.9749 37.9749C36.3185 38.6313 35.4283 39.0001 34.5 39.0001H26" stroke="#F47342" stroke-width="3.5" stroke-linecap="round" stroke-linejoin="round"/>
<path d="M54.1003 51.0433L45.6665 50.6886L46.0212 42.2549" stroke="#252B33" stroke-width="3.5" stroke-linecap="round" stroke-linejoin="round"/>
<path d="M48.5 48.5C52.3933 44.2341 55.9956 38.2283 55.9956 31.9978C55.9956 18.7442 45.2514 8 31.9978 8C18.7442 8 8 18.7442 8 31.9978C8 43.8483 15.9245 56.6122 32.5195 56.1984" stroke="#252B33" stroke-width="3.5" stroke-linecap="round"/>
</svg>
