<svg width="64" height="64" viewBox="0 0 64 64" fill="none" xmlns="http://www.w3.org/2000/svg">
<path d="M26.1836 32.8164L32 27L37.8164 32.8164" stroke="#F47342" stroke-width="3.5" stroke-linecap="round" stroke-linejoin="round"/>
<path d="M32.2839 29.0334V41.7427" stroke="#F47342" stroke-width="3.5" stroke-linecap="round"/>
<path d="M6.75 33.9419C6.75 29.9699 9.96991 26.75 13.9419 26.75C14.4809 26.75 14.998 26.5365 15.3801 26.1562C15.3801 26.1562 15.3801 26.1561 15.3801 26.1561L16.4655 25.0755C17.7802 23.7667 19.5997 22.9554 21.6779 22.4096C22.2193 22.2674 22.7928 22.0872 23.3041 21.8573C23.7603 21.6523 24.4126 21.3031 24.8533 20.7057C28.2811 16.0598 32.0473 14.3524 35.4692 14.6663C38.9532 14.9859 42.6629 17.4486 45.8085 22.3937L46.7137 23.8167L48.1903 22.8774L46.7137 23.8167C47.0835 24.398 47.7247 24.75 48.4136 24.75C53.2938 24.75 57.25 28.7062 57.25 33.5864V37C57.25 43.7655 51.7655 49.25 45 49.25H18C11.7868 49.25 6.75 44.2132 6.75 38V33.9419Z" stroke="#252B33" stroke-width="3.5"/>
</svg>
