<svg width="64" height="64" viewBox="0 0 64 64" fill="none" xmlns="http://www.w3.org/2000/svg">
<path d="M24.1 8H13.1V18H24.1V8Z" stroke="#F47342" stroke-width="3" stroke-miterlimit="10" stroke-linecap="round"/>
<path d="M35.1 8H29.1V18H35.1V8Z" stroke="#F47342" stroke-width="3" stroke-miterlimit="10" stroke-linecap="round"/>
<path d="M50.1 8H40.1V18H50.1V8Z" stroke="#F47342" stroke-width="3" stroke-miterlimit="10" stroke-linecap="round"/>
<path d="M23.1 25H12.1V36H23.1V25Z" stroke="#F47342" stroke-width="3" stroke-miterlimit="10" stroke-linecap="round"/>
<path d="M39.1 24H28.1V36H39.1V24Z" stroke="#F47342" stroke-width="3" stroke-miterlimit="10" stroke-linecap="round"/>
<path d="M50.1 25H44.1V36H50.1V25Z" stroke="#F47342" stroke-width="3" stroke-miterlimit="10" stroke-linecap="round"/>
<path d="M23.1 44H12.1V56H23.1V44Z" stroke="#F47342" stroke-width="3" stroke-miterlimit="10" stroke-linecap="round"/>
<path d="M35.1 44H28.1V56H35.1V44Z" stroke="#F47342" stroke-width="3" stroke-miterlimit="10" stroke-linecap="round"/>
<path d="M54.1 44H39.1V56H54.1V44Z" stroke="#F47342" stroke-width="3" stroke-miterlimit="10" stroke-linecap="round"/>
<path d="M7 9.20001V56H56.2" stroke="#252B33" stroke-width="3" stroke-miterlimit="10" stroke-linecap="round"/>
<path d="M7.10001 36H52.7" stroke="#252B33" stroke-width="3" stroke-miterlimit="10" stroke-linecap="round"/>
<path d="M7.10001 18H52.7" stroke="#252B33" stroke-width="3" stroke-miterlimit="10" stroke-linecap="round"/>
</svg>
