<svg width="130" height="46" viewBox="0 0 130 46" fill="none" xmlns="http://www.w3.org/2000/svg">
<mask id="path-1-inside-1_290_409" fill="white">
<path fill-rule="evenodd" clip-rule="evenodd" d="M20.5684 0C9.20879 0 0 9.20879 0 20.5684C0 31.928 9.20879 41.1368 20.5684 41.1368H108.719C110.587 41.1368 112.396 40.8878 114.117 40.4212L125.231 46L124.514 33.7433C127.494 30.1748 129.287 25.581 129.287 20.5684C129.287 9.20879 120.078 0 108.719 0H20.5684Z"/>
</mask>
<path fill-rule="evenodd" clip-rule="evenodd" d="M20.5684 0C9.20879 0 0 9.20879 0 20.5684C0 31.928 9.20879 41.1368 20.5684 41.1368H108.719C110.587 41.1368 112.396 40.8878 114.117 40.4212L125.231 46L124.514 33.7433C127.494 30.1748 129.287 25.581 129.287 20.5684C129.287 9.20879 120.078 0 108.719 0H20.5684Z" fill="white"/>
<path d="M114.117 40.4212L115.014 38.6338L114.331 38.2909L113.593 38.491L114.117 40.4212ZM125.231 46L124.333 47.7875L127.429 49.3415L127.227 45.8833L125.231 46ZM124.514 33.7433L122.979 32.4615L122.471 33.0694L122.518 33.86L124.514 33.7433ZM2 20.5684C2 10.3134 10.3134 2 20.5684 2V-2C8.10422 -2 -2 8.10422 -2 20.5684H2ZM20.5684 39.1368C10.3134 39.1368 2 30.8234 2 20.5684H-2C-2 33.0326 8.10423 43.1368 20.5684 43.1368V39.1368ZM108.719 39.1368H20.5684V43.1368H108.719V39.1368ZM113.593 38.491C112.042 38.9117 110.408 39.1368 108.719 39.1368V43.1368C110.765 43.1368 112.751 42.8639 114.64 42.3515L113.593 38.491ZM126.128 44.2126L115.014 38.6338L113.219 42.2087L124.333 47.7875L126.128 44.2126ZM122.518 33.86L123.234 46.1167L127.227 45.8833L126.511 33.6266L122.518 33.86ZM127.287 20.5684C127.287 25.0953 125.67 29.2392 122.979 32.4615L126.049 35.0252C129.318 31.1104 131.287 26.0667 131.287 20.5684H127.287ZM108.719 2C118.974 2 127.287 10.3134 127.287 20.5684H131.287C131.287 8.10422 121.183 -2 108.719 -2V2ZM20.5684 2H108.719V-2H20.5684V2Z" fill="url(#paint0_linear_290_409)" mask="url(#path-1-inside-1_290_409)"/>
<path d="M62.3959 22.944C62.3959 23.9467 62.0279 24.752 61.2919 25.36C60.5452 25.9573 59.6385 26.256 58.5719 26.256C57.6225 26.256 56.7852 25.9787 56.0599 25.424C55.3345 24.8693 54.8332 24.112 54.5559 23.152L55.9639 22.576C56.0599 22.9173 56.1932 23.2267 56.3639 23.504C56.5345 23.7813 56.7319 24.0213 56.9559 24.224C57.1905 24.416 57.4465 24.5707 57.7239 24.688C58.0012 24.7947 58.2945 24.848 58.6039 24.848C59.2759 24.848 59.8252 24.6773 60.2519 24.336C60.6785 23.984 60.8919 23.52 60.8919 22.944C60.8919 22.464 60.7159 22.0533 60.3639 21.712C60.0332 21.3813 59.4145 21.0613 58.5079 20.752C57.5905 20.4213 57.0199 20.1973 56.7959 20.08C55.5799 19.4613 54.9719 18.5493 54.9719 17.344C54.9719 16.5013 55.3079 15.7813 55.9799 15.184C56.6625 14.5867 57.4999 14.288 58.4919 14.288C59.3665 14.288 60.1239 14.512 60.7639 14.96C61.4039 15.3973 61.8305 15.9467 62.0439 16.608L60.6679 17.184C60.5399 16.7573 60.2839 16.4053 59.8999 16.128C59.5265 15.84 59.0679 15.696 58.5239 15.696C57.9479 15.696 57.4625 15.856 57.0679 16.176C56.6732 16.4747 56.4759 16.864 56.4759 17.344C56.4759 17.7387 56.6305 18.08 56.9399 18.368C57.2812 18.656 58.0225 18.9973 59.1639 19.392C60.3265 19.7867 61.1532 20.272 61.6439 20.848C62.1452 21.4133 62.3959 22.112 62.3959 22.944ZM67.4316 26.256C66.2796 26.256 65.3303 25.8613 64.5836 25.072C63.837 24.2827 63.4636 23.2853 63.4636 22.08C63.4636 20.8853 63.8263 19.8933 64.5516 19.104C65.277 18.304 66.205 17.904 67.3356 17.904C68.4983 17.904 69.421 18.2827 70.1036 19.04C70.797 19.7867 71.1436 20.8373 71.1436 22.192L71.1276 22.352H64.9676C64.989 23.12 65.245 23.7387 65.7356 24.208C66.2263 24.6773 66.813 24.912 67.4956 24.912C68.4343 24.912 69.1703 24.4427 69.7036 23.504L71.0156 24.144C70.6636 24.8053 70.173 25.3227 69.5436 25.696C68.925 26.0693 68.221 26.256 67.4316 26.256ZM65.0796 21.136H69.5756C69.533 20.592 69.309 20.144 68.9036 19.792C68.509 19.4293 67.9756 19.248 67.3036 19.248C66.749 19.248 66.269 19.4187 65.8636 19.76C65.469 20.1013 65.2076 20.56 65.0796 21.136ZM73.9618 26H72.4898V18.16H73.8978V19.44H73.9618C74.1111 19.024 74.4151 18.672 74.8738 18.384C75.3431 18.0853 75.8018 17.936 76.2498 17.936C76.6764 17.936 77.0391 18 77.3378 18.128L76.8898 19.552C76.7084 19.4773 76.4204 19.44 76.0258 19.44C75.4711 19.44 74.9858 19.664 74.5698 20.112C74.1644 20.56 73.9618 21.0827 73.9618 21.68V26ZM82.2665 26H80.7945L77.6265 18.16H79.2265L81.5305 24.24H81.5625L83.8985 18.16H85.4665L82.2665 26ZM88.3313 15.456C88.3313 15.744 88.2299 15.9893 88.0273 16.192C87.8246 16.3947 87.5793 16.496 87.2913 16.496C87.0033 16.496 86.7579 16.3947 86.5553 16.192C86.3526 15.9893 86.2513 15.744 86.2513 15.456C86.2513 15.168 86.3526 14.9227 86.5553 14.72C86.7579 14.5173 87.0033 14.416 87.2913 14.416C87.5793 14.416 87.8246 14.5173 88.0273 14.72C88.2299 14.9227 88.3313 15.168 88.3313 15.456ZM88.0273 18.16V26H86.5553V18.16H88.0273ZM93.4488 26.256C92.2861 26.256 91.3208 25.8613 90.5528 25.072C89.7954 24.2613 89.4168 23.264 89.4168 22.08C89.4168 20.8747 89.7954 19.8773 90.5528 19.088C91.3208 18.2987 92.2861 17.904 93.4488 17.904C94.2488 17.904 94.9474 18.1067 95.5448 18.512C96.1421 18.9067 96.5901 19.456 96.8888 20.16L95.5448 20.72C95.1288 19.7387 94.3981 19.248 93.3528 19.248C92.6808 19.248 92.0994 19.52 91.6088 20.064C91.1288 20.608 90.8888 21.28 90.8888 22.08C90.8888 22.88 91.1288 23.552 91.6088 24.096C92.0994 24.64 92.6808 24.912 93.3528 24.912C94.4301 24.912 95.1874 24.4213 95.6248 23.44L96.9368 24C96.6488 24.704 96.1954 25.2587 95.5768 25.664C94.9688 26.0587 94.2594 26.256 93.4488 26.256ZM101.666 26.256C100.514 26.256 99.5647 25.8613 98.818 25.072C98.0713 24.2827 97.698 23.2853 97.698 22.08C97.698 20.8853 98.0607 19.8933 98.786 19.104C99.5113 18.304 100.439 17.904 101.57 17.904C102.733 17.904 103.655 18.2827 104.338 19.04C105.031 19.7867 105.378 20.8373 105.378 22.192L105.362 22.352H99.202C99.2233 23.12 99.4793 23.7387 99.97 24.208C100.461 24.6773 101.047 24.912 101.73 24.912C102.669 24.912 103.405 24.4427 103.938 23.504L105.25 24.144C104.898 24.8053 104.407 25.3227 103.778 25.696C103.159 26.0693 102.455 26.256 101.666 26.256ZM99.314 21.136H103.81C103.767 20.592 103.543 20.144 103.138 19.792C102.743 19.4293 102.21 19.248 101.538 19.248C100.983 19.248 100.503 19.4187 100.098 19.76C99.7033 20.1013 99.442 20.56 99.314 21.136Z" fill="#252B33"/>
<path d="M37.6808 18.9427C34.3846 18.7343 33.0648 21.1306 35.0131 22.0732M42.5128 22.991C42.1329 23.8483 41.172 24.6486 39.1861 25.0821C37.3047 25.4928 36.1808 25.1407 35.5595 24.5134M42.5128 22.991C43.1445 24.1742 43.4431 26.7547 39.649 27.4695C38.7138 27.6457 37.9769 27.6369 37.4009 27.5037M42.5128 22.991C42.9415 22.0238 42.5242 20.8619 42.1052 20.1881M35.5595 24.5134C34.8847 23.8321 34.8281 22.7813 35.0131 22.0732M35.5595 24.5134C35.3825 25.5248 35.64 27.0963 37.4009 27.5037M28.8837 19.8211C29.1863 19.7358 29.4525 19.6234 29.6869 19.4877M37.4882 27.4476C37.4593 27.4665 37.4301 27.4852 37.4009 27.5037M29.6869 19.4877C32.8445 17.6606 30.1228 11.3681 33.482 10.7255C36.9321 10.0655 35.7665 17.2588 35.7665 17.2588C37.6296 16.4274 41.3813 15.8426 42.1719 18.239C42.4194 18.9894 42.3664 19.6388 42.1052 20.1881M29.6869 19.4877C29.6869 19.4877 29.0194 18.4425 28.0413 18.638C24.4865 19.3486 28.426 30.5061 31.032 30.4396C32.9608 30.3905 33.0469 28.7445 33.0469 28.7445M33.0469 28.7445C32.455 28.698 31.9274 28.5419 31.4631 28.2836M33.0469 28.7445C34.3254 28.8449 35.9898 28.397 37.4009 27.5037M42.1052 20.1881C41.055 22.3966 37.0744 23.0704 35.0131 22.0732" stroke="#F47342" stroke-width="1.3"/>
<defs>
<linearGradient id="paint0_linear_290_409" x1="113.908" y1="41.9412" x2="1.75688" y2="22.6893" gradientUnits="userSpaceOnUse">
<stop stop-color="#F0F0F0"/>
<stop offset="1" stop-color="#F0F0F0" stop-opacity="0.46"/>
</linearGradient>
</defs>
</svg>
