<svg width="64" height="64" viewBox="0 0 64 64" fill="none" xmlns="http://www.w3.org/2000/svg">
<path d="M11 30C11 28.3431 12.3431 27 14 27H21C21.5523 27 22 27.4477 22 28V40C22 40.5523 21.5523 41 21 41H14C12.3431 41 11 39.6569 11 38V30Z" stroke="#252B33" stroke-width="3.5"/>
<path d="M53 30C53 28.3431 51.6569 27 50 27H43C42.4477 27 42 27.4477 42 28V40C42 40.5523 42.4477 41 43 41H50C51.6569 41 53 39.6569 53 38V30Z" stroke="#252B33" stroke-width="3.5"/>
<path d="M48.5817 26.7558V24.0814C48.5817 14.9237 41.158 7.5 32.0003 7.5V7.5C22.8427 7.5 15.4189 14.9238 15.4189 24.0814V26.7558" stroke="#252B33" stroke-width="3.5"/>
<path d="M38.9534 52.4302V52.4302C43.4534 52.4302 47.2799 49.146 47.9622 44.698L48.5813 40.6628" stroke="#252B33" stroke-width="3.5"/>
<rect x="27.8662" y="49.9012" width="11.4767" height="6.12791" rx="3.06395" stroke="#F47342" stroke-width="3.5"/>
</svg>
