<svg width="1001" height="216" viewBox="0 0 1001 216" fill="none" xmlns="http://www.w3.org/2000/svg">
<path fill-rule="evenodd" clip-rule="evenodd" d="M84.4704 214.101L84.4479 214.084L84.3921 214.04L84.195 213.885C84.0258 213.751 83.7819 213.558 83.4678 213.307C82.8414 212.806 81.9351 212.073 80.7903 211.128C78.5016 209.239 75.2535 206.496 71.3645 203.039C63.5996 196.137 53.2196 186.337 42.8104 174.771C32.4273 163.234 21.8424 149.751 13.812 135.475C5.82858 121.282 0 105.654 0 90C0 66.1306 9.48213 43.2387 26.3604 26.3604C43.2387 9.48213 66.1306 0 90 0C113.87 0 136.761 9.48213 153.64 26.3604C170.518 43.2387 180 66.1306 180 90C180 105.654 174.172 121.282 166.188 135.475C158.158 149.751 147.573 163.234 137.19 174.771C126.78 186.337 116.401 196.137 108.635 203.039C104.746 206.496 101.498 209.239 99.2097 211.128C98.0649 212.073 97.1586 212.806 96.5322 213.307C96.2181 213.558 95.9742 213.751 95.805 213.885L95.6079 214.04L95.5521 214.084L95.535 214.096C95.535 214.096 95.5251 214.105 90 207L95.5251 214.105C92.2752 216.632 87.7203 216.629 84.4704 214.101ZM90 207L84.4704 214.101C84.4704 214.101 84.4749 214.105 90 207Z" fill="#F47342"/>
<mask id="mask0_208_421" style="mask-type:alpha" maskUnits="userSpaceOnUse" x="0" y="0" width="180" height="216">
<path fill-rule="evenodd" clip-rule="evenodd" d="M84.4704 214.101L84.4479 214.084L84.3921 214.04L84.195 213.885C84.0258 213.751 83.7819 213.558 83.4678 213.307C82.8414 212.806 81.9351 212.073 80.7903 211.128C78.5016 209.239 75.2535 206.496 71.3645 203.039C63.5996 196.137 53.2196 186.337 42.8104 174.771C32.4273 163.234 21.8424 149.751 13.812 135.475C5.82858 121.282 0 105.654 0 90C0 66.1306 9.48213 43.2387 26.3604 26.3604C43.2387 9.48213 66.1306 0 90 0C113.87 0 136.761 9.48213 153.64 26.3604C170.518 43.2387 180 66.1306 180 90C180 105.654 174.172 121.282 166.188 135.475C158.158 149.751 147.573 163.234 137.19 174.771C126.78 186.337 116.401 196.137 108.635 203.039C104.746 206.496 101.498 209.239 99.2097 211.128C98.0649 212.073 97.1586 212.806 96.5322 213.307C96.2181 213.558 95.9742 213.751 95.805 213.885L95.6079 214.04L95.5521 214.084L95.535 214.096C95.535 214.096 95.5251 214.105 90 207L95.5251 214.105C92.2752 216.632 87.7203 216.629 84.4704 214.101ZM90 207L84.4704 214.101C84.4704 214.101 84.4749 214.105 90 207Z" fill="#F47342"/>
</mask>
<g mask="url(#mask0_208_421)">
<path d="M89.0202 119.12L162.033 48.4333L208.956 39.7007L206.729 177.299L152.314 229.981L47.9292 228.291L-15.422 162.856L60.3455 89.5017L89.0202 119.12Z" fill="url(#paint0_linear_208_421)"/>
</g>
<g filter="url(#filter0_d_208_421)">
<path d="M54 130.8L121.2 63.6001L54 130.8ZM121.2 63.6001H60.72H121.2ZM121.2 63.6001V124.08V63.6001Z" fill="#0A102F"/>
<path d="M54 130.8L121.2 63.6001M121.2 63.6001H60.72M121.2 63.6001V124.08" stroke="#0A102F" stroke-width="17" stroke-linecap="round" stroke-linejoin="round"/>
</g>
<path d="M910.005 141.342L994.216 124.94C995.896 124.613 997.093 123.119 997.046 121.409C996.759 110.925 994.172 101.473 989.214 93.1395C984.413 84.8408 977.842 78.3298 969.542 73.6597C961.346 68.9716 952.164 66.6577 942.082 66.6577C931.32 66.6577 921.583 69.1075 912.965 74.0818C904.369 79.044 897.592 85.9882 892.664 94.8453L892.642 94.8839C887.844 103.769 885.482 113.761 885.482 124.778C885.482 135.829 887.996 145.85 893.093 154.748C898.183 163.634 905.322 170.63 914.443 175.705L914.48 175.726C923.633 180.674 934.021 183.102 945.554 183.102C954.546 183.102 962.846 181.528 970.406 178.324C977.982 175.113 984.365 170.419 989.498 164.248C990.595 162.929 990.575 161.01 989.451 159.715L981.282 150.305C980.613 149.535 979.642 149.094 978.622 149.099C977.602 149.104 976.635 149.554 975.974 150.33C972.387 154.542 968.003 157.766 962.777 160.012C957.667 162.131 952.009 163.214 945.758 163.214C936.435 163.214 928.577 160.925 922.026 156.478C916.638 152.629 912.632 147.613 910.005 141.342ZM923.625 90.9797L923.646 90.9672C929.056 87.765 935.171 86.1365 942.082 86.1365C950.979 86.1365 958.304 88.8103 964.278 94.0617L964.309 94.0884C969.499 98.5443 973.007 104.075 974.84 110.779L906.575 124.049C906.574 123.953 906.574 123.855 906.574 123.755C906.574 116.197 908.104 109.69 911.059 104.137C914.173 98.4015 918.358 94.0467 923.625 90.9797Z" fill="#F47342" stroke="#F47342" stroke-width="7" stroke-linejoin="round"/>
<path d="M872.482 36.2305C872.482 34.2975 870.915 32.7305 868.982 32.7305H854.496C852.563 32.7305 850.996 34.2975 850.996 36.2305V81.5553C847.427 77.9416 843.346 74.9745 838.757 72.6713C831.271 68.7094 822.889 66.7644 813.69 66.7644C803.072 66.7644 793.363 69.2125 784.642 74.1582C775.902 78.9778 769.046 85.856 764.113 94.722C759.166 103.612 756.734 113.68 756.734 124.831C756.734 135.983 759.166 146.05 764.113 154.941C769.045 163.805 775.895 170.744 784.622 175.698C793.348 180.651 803.064 183.103 813.69 183.103C823.173 183.103 831.776 181.084 839.414 176.968C844.022 174.528 848.089 171.44 851.608 167.721V178.581C851.608 180.514 853.175 182.081 855.108 182.081H868.982C870.915 182.081 872.482 180.514 872.482 178.581V36.2305ZM833.33 91.2609C833.357 91.2768 833.384 91.2922 833.411 91.3073C838.92 94.3732 843.208 98.7759 846.304 104.605C846.313 104.622 846.322 104.639 846.331 104.656C849.549 110.483 851.2 117.177 851.2 124.831C851.2 132.485 849.549 139.18 846.331 145.007C846.322 145.024 846.313 145.041 846.304 145.057C843.205 150.894 838.904 155.377 833.371 158.582C827.961 161.659 821.837 163.227 814.914 163.227C807.857 163.227 801.595 161.659 796.05 158.582C790.657 155.381 786.344 150.892 783.103 145.032C780.012 139.201 778.424 132.497 778.424 124.831C778.424 117.166 780.012 110.461 783.103 104.631C786.347 98.7669 790.657 94.3539 796.038 91.2909L796.06 91.2783C801.608 88.0679 807.864 86.4354 814.914 86.4354C821.817 86.4354 827.926 88.0622 833.33 91.2609Z" fill="#F47342" stroke="#F47342" stroke-width="7" stroke-linejoin="round"/>
<path d="M740.235 182.405C742.168 182.405 743.735 180.838 743.735 178.905V116.324C743.735 100.672 739.512 88.214 730.532 79.5576C721.781 70.852 710.048 66.6577 695.747 66.6577C685.946 66.6577 677.144 68.598 669.436 72.583C665.123 74.7746 661.325 77.5058 658.055 80.7707V70.9785C658.055 69.0455 656.488 67.4785 654.555 67.4785H640.55C638.617 67.4785 637.05 69.0455 637.05 70.9785V178.905C637.05 180.838 638.617 182.405 640.55 182.405H655.173C657.106 182.405 658.673 180.838 658.673 178.905V122.274C658.673 110.76 661.837 102.23 667.76 96.2088C673.843 90.0278 682.143 86.7895 693.07 86.7895C702.834 86.7895 709.843 89.5215 714.639 94.5324C719.441 99.5501 722.112 107.1 722.112 117.76V178.905C722.112 180.838 723.679 182.405 725.612 182.405H740.235Z" fill="#F47342" stroke="#F47342" stroke-width="7" stroke-linejoin="round"/>
<path d="M536.68 175.678L536.718 175.699C545.552 180.655 555.433 183.102 566.278 183.102C577.123 183.102 587.004 180.655 595.838 175.699L595.876 175.678C604.684 170.592 611.572 163.591 616.487 154.723C621.553 145.83 624.05 135.819 624.05 124.778C624.05 113.737 621.553 103.725 616.487 94.8328C611.567 85.9557 604.667 79.0132 595.838 74.0605C587.004 69.1052 577.123 66.6577 566.278 66.6577C555.433 66.6577 545.552 69.1052 536.718 74.0605C527.892 79.0118 520.931 85.9484 515.876 94.8137C510.804 103.711 508.303 113.729 508.303 124.778C508.303 135.827 510.804 145.844 515.876 154.742C520.926 163.598 527.875 170.593 536.68 175.678ZM584.816 91.1681C584.843 91.184 584.869 91.1995 584.897 91.2147C590.382 94.2818 594.654 98.6876 597.739 104.524C600.828 110.368 602.415 117.091 602.415 124.778C602.415 132.465 600.828 139.187 597.739 145.031C594.65 150.875 590.366 155.362 584.855 158.569C579.479 161.64 573.318 163.214 566.278 163.214C559.252 163.214 553.019 161.646 547.497 158.568C542.127 155.365 537.831 150.873 534.601 145.006C531.521 139.168 529.938 132.454 529.938 124.778C529.938 117.102 531.521 110.388 534.601 104.55C537.833 98.6787 542.127 94.2625 547.486 91.1982L547.508 91.1855C553.031 87.9738 559.259 86.341 566.278 86.341C573.298 86.341 579.445 87.9739 584.816 91.1681Z" fill="#F47342" stroke="#F47342" stroke-width="7" stroke-linejoin="round"/>
<path d="M408.26 141.342L492.471 124.94C494.151 124.613 495.348 123.119 495.301 121.409C495.014 110.925 492.426 101.473 487.469 93.1396C482.668 84.8409 476.097 78.3299 467.797 73.6597C459.601 68.9716 450.419 66.6577 440.337 66.6577C429.575 66.6577 419.838 69.1075 411.22 74.0818C402.624 79.044 395.847 85.9882 390.918 94.8453L390.897 94.8839C386.099 103.769 383.737 113.761 383.737 124.778C383.737 135.829 386.251 145.85 391.348 154.748C396.438 163.634 403.577 170.63 412.698 175.705L412.735 175.726C421.888 180.674 432.276 183.102 443.809 183.102C452.801 183.102 461.101 181.528 468.66 178.324C476.237 175.113 482.619 170.419 487.753 164.248C488.85 162.929 488.83 161.01 487.706 159.715L479.537 150.305C478.868 149.535 477.897 149.094 476.877 149.099C475.857 149.104 474.89 149.554 474.229 150.33C470.642 154.542 466.258 157.766 461.032 160.012C455.922 162.131 450.264 163.214 444.013 163.214C434.69 163.214 426.832 160.925 420.28 156.478C414.893 152.629 410.887 147.613 408.26 141.342ZM421.879 90.9797L421.901 90.9672C427.311 87.765 433.426 86.1365 440.337 86.1365C449.234 86.1365 456.559 88.8103 462.533 94.0617L462.564 94.0884C467.754 98.5443 471.262 104.075 473.095 110.779L404.83 124.049C404.829 123.953 404.829 123.855 404.829 123.755C404.829 116.197 406.359 109.69 409.313 104.137C412.428 98.4015 416.613 94.0467 421.879 90.9797Z" fill="#F47342" stroke="#F47342" stroke-width="7" stroke-linejoin="round"/>
<path d="M232 32.5C230.067 32.5 228.5 34.067 228.5 36V178.905C228.5 180.838 230.067 182.405 232 182.405H290.398C306.029 182.405 319.982 179.316 332.164 173.033L332.192 173.018C344.343 166.609 353.846 157.733 360.612 146.402L360.622 146.386C367.39 134.907 370.737 121.897 370.737 107.453C370.737 93.0124 367.392 80.0649 360.616 68.7149C353.852 57.2475 344.345 48.3617 332.178 42.0835C319.994 35.66 306.035 32.5 290.398 32.5H232ZM341.474 79.0097L341.486 79.0302C346.315 87.1322 348.779 96.5688 348.779 107.453C348.779 118.331 346.317 127.842 341.48 136.09C336.637 144.213 329.819 150.645 320.936 155.394C312.096 159.985 301.678 162.34 289.578 162.34H250.663V52.5656H289.578C301.672 52.5656 312.083 54.9857 320.919 59.7063L320.954 59.7247C329.817 64.332 336.629 70.7521 341.474 79.0097Z" fill="#F47342" stroke="#F47342" stroke-width="7" stroke-linejoin="round"/>
<defs>
<filter id="filter0_d_208_421" x="45.5" y="55.1001" width="84.2002" height="92.2002" filterUnits="userSpaceOnUse" color-interpolation-filters="sRGB">
<feFlood flood-opacity="0" result="BackgroundImageFix"/>
<feColorMatrix in="SourceAlpha" type="matrix" values="0 0 0 0 0 0 0 0 0 0 0 0 0 0 0 0 0 0 127 0" result="hardAlpha"/>
<feOffset dy="8"/>
<feComposite in2="hardAlpha" operator="out"/>
<feColorMatrix type="matrix" values="0 0 0 0 0 0 0 0 0 0 0 0 0 0 0 0 0 0 0.08 0"/>
<feBlend mode="normal" in2="BackgroundImageFix" result="effect1_dropShadow_208_421"/>
<feBlend mode="normal" in="SourceGraphic" in2="effect1_dropShadow_208_421" result="shape"/>
</filter>
<linearGradient id="paint0_linear_208_421" x1="207.409" y1="135.274" x2="-14.9174" y2="131.676" gradientUnits="userSpaceOnUse">
<stop stop-color="#D85828"/>
<stop offset="1" stop-color="#E06334"/>
</linearGradient>
</defs>
</svg>
