<svg width="64" height="64" viewBox="0 0 64 64" fill="none" xmlns="http://www.w3.org/2000/svg">
<path d="M19 7.75H45C46.2426 7.75 47.25 8.75736 47.25 10V19V32V45V54C47.25 55.2426 46.2426 56.25 45 56.25H19C17.7574 56.25 16.75 55.2426 16.75 54V45V32V10C16.75 8.75736 17.7574 7.75 19 7.75Z" stroke="#252B33" stroke-width="3.5"/>
<path d="M27 10H37" stroke="#252B33" stroke-width="3.5" stroke-linecap="round"/>
<rect x="28" y="20" width="8" height="8" rx="1" stroke="#F47342" stroke-width="3.5"/>
<path d="M31.134 38.5C31.5189 37.8333 32.4811 37.8333 32.866 38.5L37.1962 46C37.5811 46.6667 37.0999 47.5 36.3301 47.5H27.6699C26.9001 47.5 26.4189 46.6667 26.8038 46L31.134 38.5Z" stroke="#F47342" stroke-width="3.5"/>
</svg>