<svg width="64" height="64" viewBox="0 0 64 64" fill="none" xmlns="http://www.w3.org/2000/svg">
<path d="M49.6001 10.0625H43.2V8.53125C43.2 7.68598 42.4832 7 41.6001 7C40.7169 7 40.0001 7.68598 40.0001 8.53125V10.0625H24.0001V8.53125C24 7.68598 23.2832 7 22.4 7C21.5168 7 20.8 7.68598 20.8 8.53125V10.0625H14.4C10.8656 10.0625 8 12.805 8 16.1875V49.8749C8 53.2574 10.8656 56 14.4 56H49.6C53.1344 56 56 53.2575 56 49.8749V16.1875C56 12.8049 53.1344 10.0625 49.6001 10.0625ZM52.8001 49.8749C52.8001 51.567 51.3681 52.9374 49.6001 52.9374H14.4C12.632 52.9374 11.2 51.5654 11.2 49.8749V22.3125H52.8L52.8001 49.8749ZM52.8001 19.25H11.2V16.1875C11.2 14.4955 12.632 13.125 14.4 13.125H20.8V14.6562C20.8 15.5015 21.5168 16.1875 22.4 16.1875C23.2832 16.1875 24 15.5015 24 14.6562V13.125H40V14.6562C40 15.5015 40.7169 16.1875 41.6 16.1875C42.4831 16.1875 43.2 15.5015 43.2 14.6562V13.125H49.6001C51.3681 13.125 52.8001 14.4955 52.8001 16.1875V19.25Z" fill="#252B33"/>
<path d="M16 35V30.5C16 29.9477 16.4477 29.5 17 29.5H21.5C22.0523 29.5 22.5 29.9477 22.5 30.5V35C22.5 35.5523 22.0523 36 21.5 36H17C16.4477 36 16 35.5523 16 35Z" stroke="#252B33" stroke-width="3.5"/>
<path d="M16 46.5V42C16 41.4477 16.4477 41 17 41H21.5C22.0523 41 22.5 41.4477 22.5 42V46.5C22.5 47.0523 22.0523 47.5 21.5 47.5H17C16.4477 47.5 16 47.0523 16 46.5Z" stroke="#252B33" stroke-width="3.5"/>
<path d="M29 35V30.5C29 29.9477 29.4477 29.5 30 29.5H34.5C35.0523 29.5 35.5 29.9477 35.5 30.5V35C35.5 35.5523 35.0523 36 34.5 36H30C29.4477 36 29 35.5523 29 35Z" stroke="#252B33" stroke-width="3.5"/>
<path d="M29 46.5V42C29 41.4477 29.4477 41 30 41H34.5C35.0523 41 35.5 41.4477 35.5 42V46.5C35.5 47.0523 35.0523 47.5 34.5 47.5H30C29.4477 47.5 29 47.0523 29 46.5Z" stroke="#252B33" stroke-width="3.5"/>
<path d="M42 35V30.5C42 29.9477 42.4477 29.5 43 29.5H47.5C48.0523 29.5 48.5 29.9477 48.5 30.5V35C48.5 35.5523 48.0523 36 47.5 36H43C42.4477 36 42 35.5523 42 35Z" stroke="#252B33" stroke-width="3.5"/>
<path d="M42 46.5V42C42 41.4477 42.4477 41 43 41H47.5C48.0523 41 48.5 41.4477 48.5 42V46.5C48.5 47.0523 48.0523 47.5 47.5 47.5H43C42.4477 47.5 42 47.0523 42 46.5Z" stroke="#F47342" stroke-width="3.5"/>
</svg>
