<svg width="130" height="46" viewBox="0 0 130 46" fill="none" xmlns="http://www.w3.org/2000/svg">
<mask id="path-1-inside-1_290_101" fill="white">
<path fill-rule="evenodd" clip-rule="evenodd" d="M108.719 46C120.078 46 129.287 36.7912 129.287 25.4316C129.287 14.072 120.078 4.8632 108.719 4.8632H20.5684C18.7005 4.8632 16.8908 5.11219 15.1705 5.5788L4.0564 -4.57764e-05L4.77283 12.2567C1.7931 15.8252 3.05176e-05 20.419 3.05176e-05 25.4316C3.05176e-05 36.7912 9.20882 46 20.5684 46H108.719Z"/>
</mask>
<path fill-rule="evenodd" clip-rule="evenodd" d="M108.719 46C120.078 46 129.287 36.7912 129.287 25.4316C129.287 14.072 120.078 4.8632 108.719 4.8632H20.5684C18.7005 4.8632 16.8908 5.11219 15.1705 5.5788L4.0564 -4.57764e-05L4.77283 12.2567C1.7931 15.8252 3.05176e-05 20.419 3.05176e-05 25.4316C3.05176e-05 36.7912 9.20882 46 20.5684 46H108.719Z" fill="white"/>
<path d="M15.1705 5.5788L14.2733 7.36625L14.9564 7.70914L15.6941 7.50905L15.1705 5.5788ZM4.0564 -4.57764e-05L4.95363 -1.7875L1.85767 -3.34154L2.05981 0.116657L4.0564 -4.57764e-05ZM4.77283 12.2567L6.30801 13.5385L6.81564 12.9306L6.76942 12.14L4.77283 12.2567ZM127.287 25.4316C127.287 35.6866 118.974 44 108.719 44V48C121.183 48 131.287 37.8958 131.287 25.4316H127.287ZM108.719 6.8632C118.974 6.8632 127.287 15.1766 127.287 25.4316H131.287C131.287 12.9674 121.183 2.8632 108.719 2.8632V6.8632ZM20.5684 6.8632H108.719V2.8632H20.5684V6.8632ZM15.6941 7.50905C17.2452 7.08831 18.879 6.8632 20.5684 6.8632V2.8632C18.5221 2.8632 16.5363 3.13607 14.647 3.64854L15.6941 7.50905ZM3.15918 1.78741L14.2733 7.36625L16.0678 3.79134L4.95363 -1.7875L3.15918 1.78741ZM6.76942 12.14L6.05299 -0.116749L2.05981 0.116657L2.77624 12.3734L6.76942 12.14ZM2.00003 25.4316C2.00003 20.9047 3.61742 16.7608 6.30801 13.5385L3.23764 10.9748C-0.0312195 14.8896 -1.99997 19.9333 -1.99997 25.4316H2.00003ZM20.5684 44C10.3134 44 2.00003 35.6866 2.00003 25.4316H-1.99997C-1.99997 37.8958 8.10426 48 20.5684 48V44ZM108.719 44H20.5684V48H108.719V44Z" fill="url(#paint0_linear_290_101)" mask="url(#path-1-inside-1_290_101)"/>
<path d="M66.6133 29.016L65.4613 29.768L64.6773 28.6C63.7813 29.0373 62.864 29.256 61.9253 29.256C60.2613 29.256 58.864 28.68 57.7333 27.528C56.6026 26.3867 56.0373 24.968 56.0373 23.272C56.0373 21.576 56.6026 20.1573 57.7333 19.016C58.864 17.864 60.2613 17.288 61.9253 17.288C63.5893 17.288 64.9866 17.8693 66.1173 19.032C67.248 20.1733 67.8133 21.5867 67.8133 23.272C67.8133 24.168 67.6373 25.0053 67.2853 25.784C66.944 26.5627 66.4533 27.24 65.8133 27.816L66.6133 29.016ZM61.9253 27.848C62.608 27.848 63.2533 27.6987 63.8613 27.4L62.5173 25.384L63.6693 24.6L64.9973 26.6C65.872 25.7573 66.3093 24.648 66.3093 23.272C66.3093 21.9387 65.888 20.8453 65.0453 19.992C64.2133 19.128 63.1733 18.696 61.9253 18.696C60.6773 18.696 59.632 19.128 58.7893 19.992C57.9573 20.856 57.5413 21.9493 57.5413 23.272C57.5413 24.5947 57.9573 25.688 58.7893 26.552C59.632 27.416 60.6773 27.848 61.9253 27.848ZM76.1744 29H74.7664V27.912H74.7024C74.4784 28.296 74.1318 28.616 73.6624 28.872C73.2038 29.128 72.7238 29.256 72.2224 29.256C71.2624 29.256 70.5211 28.984 69.9984 28.44C69.4864 27.8853 69.2304 27.1013 69.2304 26.088V21.16H70.7024V25.992C70.7344 27.272 71.3798 27.912 72.6384 27.912C73.2251 27.912 73.7158 27.6773 74.1104 27.208C74.5051 26.728 74.7024 26.1573 74.7024 25.496V21.16H76.1744V29ZM78.9602 26.6C78.9602 26.984 79.1202 27.304 79.4402 27.56C79.7709 27.816 80.1549 27.944 80.5922 27.944C81.2109 27.944 81.7602 27.7147 82.2402 27.256C82.7309 26.7973 82.9762 26.2587 82.9762 25.64C82.5175 25.2773 81.8775 25.096 81.0562 25.096C80.4589 25.096 79.9575 25.24 79.5522 25.528C79.1575 25.816 78.9602 26.1733 78.9602 26.6ZM80.8642 20.904C81.9522 20.904 82.8109 21.1973 83.4402 21.784C84.0695 22.36 84.3842 23.1547 84.3842 24.168V29H82.9762V27.912H82.9122C82.3042 28.808 81.4935 29.256 80.4802 29.256C79.6162 29.256 78.8909 29 78.3042 28.488C77.7282 27.976 77.4402 27.336 77.4402 26.568C77.4402 25.7573 77.7442 25.112 78.3522 24.632C78.9709 24.152 79.7922 23.912 80.8162 23.912C81.6909 23.912 82.4109 24.072 82.9762 24.392V24.056C82.9762 23.544 82.7735 23.112 82.3682 22.76C81.9629 22.3973 81.4882 22.216 80.9442 22.216C80.1229 22.216 79.4722 22.5627 78.9922 23.256L77.6962 22.44C78.4109 21.416 79.4669 20.904 80.8642 20.904ZM87.5164 17.544V29H86.0444V17.544H87.5164ZM91.2141 18.456C91.2141 18.744 91.1127 18.9893 90.9101 19.192C90.7074 19.3947 90.4621 19.496 90.1741 19.496C89.8861 19.496 89.6407 19.3947 89.4381 19.192C89.2354 18.9893 89.1341 18.744 89.1341 18.456C89.1341 18.168 89.2354 17.9227 89.4381 17.72C89.6407 17.5173 89.8861 17.416 90.1741 17.416C90.4621 17.416 90.7074 17.5173 90.9101 17.72C91.1127 17.9227 91.2141 18.168 91.2141 18.456ZM90.9101 21.16V29H89.4381V21.16H90.9101ZM95.8516 29.128C95.2116 29.128 94.6782 28.9307 94.2516 28.536C93.8356 28.1413 93.6222 27.592 93.6116 26.888V22.504H92.2356V21.16H93.6116V18.76H95.0836V21.16H97.0036V22.504H95.0836V26.408C95.0836 26.9307 95.1849 27.288 95.3876 27.48C95.5902 27.6613 95.8196 27.752 96.0756 27.752C96.1929 27.752 96.3049 27.7413 96.4116 27.72C96.5289 27.688 96.6356 27.6507 96.7316 27.608L97.1956 28.92C96.8116 29.0587 96.3636 29.128 95.8516 29.128ZM105.49 21.16L100.578 32.456H99.0579L100.882 28.504L97.6499 21.16H99.2499L101.586 26.792H101.618L103.89 21.16H105.49Z" fill="#252B33"/>
<path d="M28.2393 25.6875C29.2542 24.6628 30.2674 23.6343 31.2566 22.5848C31.8104 22.9574 32.3629 23.3305 32.9142 23.7042C33.4573 24.0694 34.0228 23.4937 33.7221 22.9398L32.6743 21.0278C33.6325 19.9481 34.5542 18.8362 35.4105 17.6701C35.4837 17.5733 35.5238 17.4555 35.525 17.3341C35.5262 17.2127 35.4885 17.0942 35.4173 16.9959C35.3462 16.8975 35.2453 16.8246 35.1296 16.7879C35.014 16.7511 34.8896 16.7525 34.7747 16.7917C33.5131 17.2001 32.2371 17.6029 30.9262 17.8137C30.5173 17.0616 30.1079 16.3093 29.6979 15.5568C29.724 15.2875 29.7496 15.0171 29.7727 14.7477C29.8181 14.2348 29.2609 14.0001 28.9239 14.1712C28.5324 13.7855 27.8001 14.3882 28.1121 14.9612L28.5565 15.7784C28.4889 16.4943 28.4131 17.2053 28.3292 17.9113C28.0252 17.8764 27.7238 17.8212 27.4272 17.7461C26.6704 17.5527 25.9751 17.1963 25.2458 17.6777C24.9622 17.8647 24.9196 18.3734 25.2206 18.5703C26.1518 19.1827 27.0823 19.7979 28.0121 20.416C27.7896 22.0325 27.5361 23.644 27.2513 25.2505C27.1371 25.8471 27.8727 26.0572 28.2393 25.6875ZM31.3209 20.8626L31.0843 21.1237C30.4627 20.7075 29.8404 20.292 29.2174 19.8773C29.2526 19.6117 29.2884 19.3474 29.3236 19.0817C29.6597 19.0775 29.9943 19.0584 30.3275 19.0245C30.657 19.6369 30.9881 20.2496 31.3209 20.8626ZM33.4534 18.3775C33.0168 18.922 32.5687 19.4559 32.109 19.9794L31.4963 18.8525C32.1544 18.7272 32.8119 18.5692 33.4528 18.3763L33.4534 18.3775ZM29.5086 17.5174C29.5863 17.6592 29.6629 17.8016 29.7406 17.9435C29.6472 17.9493 29.5527 17.9527 29.4581 17.956L29.5086 17.5174ZM27.8733 18.9734C27.9491 18.9857 28.0249 18.998 28.1008 19.0071L28.1988 19.0188L28.1788 19.1774L27.8733 18.9734ZM30.3168 21.9471C29.7708 22.5263 29.2172 23.0983 28.6606 23.6671C28.8014 22.8126 28.9315 21.9567 29.051 21.0993C29.4711 21.3847 29.8913 21.669 30.3116 21.9523L30.3168 21.9471Z" fill="#F47342"/>
<path d="M40.6824 30.1035C41.6973 29.0788 42.7106 28.0504 43.6998 27.0008C44.2535 27.3734 44.8061 27.7465 45.3573 28.1202C45.9005 28.4854 46.466 27.9097 46.1653 27.3559L45.1175 25.4438C46.0756 24.3641 46.9974 23.2522 47.8537 22.0861C47.9268 21.9893 47.967 21.8715 47.9682 21.7501C47.9694 21.6288 47.9317 21.5102 47.8605 21.4119C47.7893 21.3136 47.6885 21.2407 47.5728 21.2039C47.4571 21.1672 47.3327 21.1685 47.2179 21.2077C45.9563 21.6162 44.6803 22.0189 43.3693 22.2298C42.9605 21.4777 42.5511 20.7253 42.141 19.9728C42.1672 19.7036 42.1928 19.4331 42.2159 19.1637C42.2613 18.6508 41.7041 18.4161 41.3671 18.5872C40.9756 18.2015 40.2433 18.8042 40.5552 19.3772L40.9997 20.1944C40.9321 20.9103 40.8563 21.6213 40.7724 22.3273C40.4684 22.2924 40.167 22.2372 39.8703 22.1622C39.1135 21.9687 38.4183 21.6123 37.689 22.0937C37.4054 22.2807 37.3628 22.7894 37.6637 22.9863C38.595 23.5987 39.5255 24.2139 40.4553 24.832C40.2328 26.4485 39.9792 28.0601 39.6945 29.6665C39.5803 30.2632 40.3158 30.4733 40.6824 30.1035ZM43.7641 25.2786L43.5275 25.5398C42.9059 25.1235 42.2836 24.708 41.6606 24.2934C41.6958 24.0277 41.7316 23.7634 41.7668 23.4978C42.1028 23.4935 42.4375 23.4745 42.7707 23.4405C43.1002 24.0529 43.4313 24.6656 43.7641 25.2786ZM45.8966 22.7936C45.46 23.338 45.0118 23.872 44.5522 24.3954L43.9395 23.2685C44.5976 23.1432 45.2551 22.9852 45.896 22.7923L45.8966 22.7936ZM41.9518 21.9334C42.0295 22.0752 42.106 22.2176 42.1838 22.3595C42.0904 22.3653 41.9958 22.3687 41.9013 22.372L41.9518 21.9334ZM40.3165 23.3895C40.3923 23.4017 40.468 23.414 40.544 23.4231L40.642 23.4348L40.622 23.5934L40.3165 23.3895ZM42.76 26.3631C42.214 26.9423 41.6604 27.5143 41.1038 28.0831C41.2445 27.2286 41.3747 26.3727 41.4942 25.5154C41.9143 25.8007 42.3345 26.085 42.7548 26.3683L42.76 26.3631Z" fill="#F47342"/>
<path d="M16.9573 33.6875C17.9722 32.6628 18.9854 31.6343 19.9746 30.5848C20.5284 30.9574 21.0809 31.3305 21.6322 31.7042C22.1753 32.0694 22.7409 31.4937 22.4401 30.9398L21.3923 29.0278C22.3505 27.9481 23.2722 26.8362 24.1286 25.6701C24.2017 25.5733 24.2418 25.4555 24.243 25.3341C24.2443 25.2127 24.2065 25.0942 24.1353 24.9959C24.0642 24.8975 23.9633 24.8246 23.8477 24.7879C23.732 24.7511 23.6076 24.7525 23.4927 24.7917C22.2311 25.2001 20.9551 25.6029 19.6442 25.8137C19.2353 25.0616 18.8259 24.3093 18.4159 23.5568C18.442 23.2875 18.4677 23.0171 18.4908 22.7477C18.5361 22.2348 17.9789 22.0001 17.6419 22.1712C17.2504 21.7855 16.5181 22.3882 16.8301 22.9612L17.2745 23.7784C17.2069 24.4943 17.1311 25.2053 17.0472 25.9113C16.7432 25.8764 16.4419 25.8212 16.1452 25.7461C15.3884 25.5527 14.6931 25.1963 13.9639 25.6777C13.6803 25.8647 13.6376 26.3734 13.9386 26.5703C14.8699 27.1827 15.8004 27.7979 16.7301 28.416C16.5077 30.0325 16.2541 31.644 15.9693 33.2505C15.8552 33.8471 16.5907 34.0572 16.9573 33.6875ZM20.0389 28.8626L19.8023 29.1237C19.1807 28.7075 18.5584 28.292 17.9354 27.8773C17.9706 27.6117 18.0064 27.3474 18.0416 27.0817C18.3777 27.0775 18.7123 27.0584 19.0455 27.0245C19.375 27.6369 19.7062 28.2496 20.0389 28.8626ZM22.1714 26.3775C21.7348 26.922 21.2867 27.4559 20.827 27.9794L20.2143 26.8525C20.8724 26.7272 21.5299 26.5692 22.1709 26.3763L22.1714 26.3775ZM18.2266 25.5174C18.3044 25.6592 18.3809 25.8016 18.4586 25.9435C18.3652 25.9493 18.2707 25.9527 18.1762 25.956L18.2266 25.5174ZM16.5913 26.9734C16.6671 26.9857 16.7429 26.998 16.8188 27.0071L16.9168 27.0188L16.8968 27.1774L16.5913 26.9734ZM19.0349 29.9471C18.4888 30.5263 17.9352 31.0983 17.3787 31.6671C17.5194 30.8126 17.6495 29.9567 17.769 29.0993C18.1892 29.3847 18.6094 29.669 19.0296 29.9523L19.0349 29.9471Z" fill="#F47342"/>
<defs>
<linearGradient id="paint0_linear_290_101" x1="15.3789" y1="4.05878" x2="127.53" y2="23.3107" gradientUnits="userSpaceOnUse">
<stop stop-color="#F0F0F0"/>
<stop offset="1" stop-color="#F0F0F0" stop-opacity="0.46"/>
</linearGradient>
</defs>
</svg>
