<svg width="64" height="64" viewBox="0 0 64 64" fill="none" xmlns="http://www.w3.org/2000/svg">
<path d="M20.9579 16.595C24.6721 14.1675 29.0659 12.9927 33.496 13.2428C37.9261 13.4929 42.1598 15.1547 45.5771 17.9849C48.9945 20.8151 51.416 24.665 52.4872 28.9709C53.5584 33.2768 53.2229 37.8126 51.5299 41.914C49.8369 46.0155 46.8753 49.4672 43.0787 51.7639C39.2821 54.0605 34.85 55.0813 30.4314 54.6769C26.0127 54.2725 21.8395 52.4642 18.5229 49.5166C15.2063 46.569 12.9204 42.637 12 38.2964" stroke="#252B33" stroke-width="3" stroke-miterlimit="10" stroke-linecap="round"/>
<path d="M26.1461 16.9112C27.3925 17.0489 27.8503 18.6247 26.8716 19.4088C26.5802 19.6423 26.208 19.7504 25.8369 19.7094L19.6774 19.0288C18.854 18.9379 18.2603 18.1966 18.3512 17.3732L19.0318 11.2133C19.0728 10.8424 19.2594 10.5029 19.5507 10.2696C20.5291 9.48567 21.9669 10.2762 21.8292 11.5223L21.5676 13.8901C21.416 15.2624 22.4056 16.4979 23.7779 16.6495L26.1461 16.9112Z" fill="#252B33" stroke="#252B33"/>
<path d="M25.1932 30.0241H39.8713C40.1687 30.0241 40.4628 30.0865 40.7347 30.2071C41.0065 30.3277 41.2501 30.504 41.4497 30.7245C41.6492 30.945 41.8004 31.2049 41.8933 31.4874C41.9863 31.7699 42.0191 32.0688 41.9895 32.3647L41.3508 38.7511C41.2983 39.2764 41.0525 39.7635 40.6611 40.1177C40.2697 40.4719 39.7606 40.6681 39.2327 40.6681H29.0677C28.5753 40.6683 28.0982 40.4979 27.7174 40.1858C27.3366 39.8737 27.0758 39.4393 26.9793 38.9566L25.1932 30.0241Z" stroke="#F47342" stroke-width="3" stroke-linejoin="round"/>
<path d="M36.9016 44.9257H39.0304M25.1932 30.0241L24.331 26.5722C24.2734 26.3421 24.1405 26.1378 23.9534 25.9918C23.7663 25.8458 23.5359 25.7665 23.2986 25.7665H22L25.1932 30.0241ZM28.3864 44.9257H30.5152H28.3864Z" stroke="#F47342" stroke-width="3" stroke-linecap="round" stroke-linejoin="round"/>
</svg>
