<svg width="64" height="64" viewBox="0 0 64 64" fill="none" xmlns="http://www.w3.org/2000/svg">
<rect width="64" height="64" rx="32" fill="#F47342"/>
<rect x="17.5" y="9.5" width="28.3846" height="45" rx="4.5" stroke="white" stroke-width="3"/>
<path d="M27.0769 11.6923H36.3077" stroke="white" stroke-width="3" stroke-linecap="round"/>
<path d="M38.2215 32.6634L37.2213 33.0168V34.0777V35.1864H37.1593H26.2253H26.1633V34.0777V33.0168L25.1631 32.6634C24.397 32.3926 23.7632 31.8394 23.3914 31.1168C23.0197 30.3941 22.9381 29.5567 23.1633 28.7759C23.3885 27.995 23.9035 27.3298 24.6029 26.9162C25.3024 26.5026 26.1334 26.3719 26.9259 26.5508L28.2674 26.8536L28.6853 25.5435C28.8888 24.9056 29.2898 24.3489 29.8303 23.954C30.3708 23.559 31.0229 23.3462 31.6923 23.3462C32.3617 23.3462 33.0138 23.559 33.5543 23.954C34.0948 24.3489 34.4958 24.9056 34.6993 25.5435L35.1172 26.8536L36.4587 26.5508C37.2512 26.3719 38.0822 26.5026 38.7817 26.9162C39.4811 27.3298 39.9961 27.995 40.2213 28.7759C40.4465 29.5567 40.3649 30.3941 39.9932 31.1168C39.6214 31.8394 38.9876 32.3926 38.2215 32.6634ZM37.1593 39.7485H37.2213V39.8079C37.2201 40.0319 37.1307 40.2465 36.9723 40.4049C36.8139 40.5632 36.5995 40.6527 36.3757 40.6538H27.0089C26.7851 40.6527 26.5707 40.5632 26.4123 40.4049C26.2539 40.2465 26.1644 40.0319 26.1633 39.8079V39.7485H26.2253H37.1593Z" stroke="white" stroke-width="3"/>
</svg>