<svg width="64" height="64" viewBox="0 0 64 64" fill="none" xmlns="http://www.w3.org/2000/svg">
<path d="M38.8879 36.3654L38.2267 33.0232C38.1963 32.8722 38.1151 32.7365 37.997 32.6391C37.879 32.5416 37.7312 32.4884 37.5788 32.4885H28.3226C28.1702 32.4884 28.0224 32.5416 27.9043 32.6391C27.7863 32.7365 27.7051 32.8722 27.6746 33.0232L27.0135 36.3654C26.9981 36.4446 26.9959 36.526 27.0069 36.606L27.668 40.6166C27.6932 40.7736 27.7729 40.9164 27.8929 41.0193C28.0129 41.1222 28.1652 41.1785 28.3226 41.1781H37.5788C37.7361 41.1785 37.8885 41.1222 38.0085 41.0193C38.1284 40.9164 38.2082 40.7736 38.2334 40.6166L38.8945 36.606C38.9055 36.526 38.9033 36.4446 38.8879 36.3654ZM28.8647 33.8253H37.0367L37.4333 35.8306H28.468L28.8647 33.8253ZM33.6119 37.1675V37.8359H32.2895V37.1675H33.6119ZM37.0168 39.8412H28.8846L28.4416 37.1675H30.9672V38.5043C30.9672 38.6816 31.0369 38.8516 31.1609 38.977C31.2849 39.1024 31.453 39.1728 31.6284 39.1728H34.273C34.4484 39.1728 34.6165 39.1024 34.7405 38.977C34.8645 38.8516 34.9342 38.6816 34.9342 38.5043V37.1675H37.4598L37.0168 39.8412Z" fill="#F47342"/>
<path d="M40.2234 29.8147C40.048 29.8147 39.8798 29.8852 39.7558 30.0105C39.6319 30.1359 39.5622 30.3059 39.5622 30.4832V32.4885C39.5622 32.6657 39.6319 32.8358 39.7558 32.9611C39.8798 33.0865 40.048 33.1569 40.2234 33.1569H40.2762L40.8845 40.5651C40.8983 40.7326 40.974 40.8887 41.0965 41.0023C41.2191 41.1159 41.3794 41.1786 41.5457 41.1781H46.8349C47.0012 41.1786 47.1615 41.1159 47.2841 41.0023C47.4066 40.8887 47.4823 40.7326 47.4961 40.5651L48.1044 33.1569H48.1573C48.3326 33.1569 48.5008 33.0865 48.6248 32.9611C48.7488 32.8358 48.8184 32.6657 48.8184 32.4885V30.4832C48.8184 30.3059 48.7488 30.1359 48.6248 30.0105C48.5008 29.8852 48.3326 29.8147 48.1573 29.8147H46.1738V28.0862L47.3024 26.9452L46.3675 26L45.0452 27.3369C44.9212 27.4622 44.8515 27.6322 44.8515 27.8094V29.8147H40.2234ZM46.2267 39.8412H42.1539L41.6032 33.1569H46.7774L46.2267 39.8412ZM47.4961 31.82H40.8845V31.1516H47.4961V31.82Z" fill="#F47342"/>
<path d="M54.48 21.69C54.3615 21.5696 54.2197 21.4747 54.0632 21.411C53.9067 21.3474 53.7389 21.3164 53.57 21.32H43.11V20.51C43.7356 20.2654 44.2822 19.8538 44.69 19.32C45.1641 18.6807 45.42 17.9059 45.42 17.11C45.414 16.9091 45.3664 16.7115 45.28 16.53L43.07 12.1V10.84C43.0635 10.0889 42.7618 9.37049 42.23 8.84C41.6995 8.30823 40.9811 8.0065 40.23 8H15.19C14.4387 8.00542 13.7199 8.30732 13.19 8.84C12.9249 9.10141 12.7142 9.41273 12.57 9.756C12.4258 10.0993 12.3511 10.4677 12.35 10.84V12.1L10.14 16.53C10.049 16.7099 10.0011 16.9084 10 17.11C10.0007 17.909 10.2642 18.6856 10.75 19.32C11.1643 19.8468 11.7138 20.2512 12.34 20.49V53.14C12.3454 53.8913 12.6473 54.6101 13.18 55.14C13.7109 55.6699 14.4299 55.9683 15.18 55.97H40.25C40.9999 55.9672 41.7185 55.669 42.25 55.14C42.7791 54.6077 43.0803 53.8904 43.09 53.14V46.59H53.57C53.7387 46.5918 53.906 46.5601 54.0622 46.4965C54.2185 46.433 54.3605 46.339 54.48 46.22C54.7189 45.9808 54.8552 45.658 54.86 45.32V22.59C54.8592 22.4223 54.8252 22.2565 54.76 22.102C54.6948 21.9475 54.5996 21.8075 54.48 21.69ZM40.76 17.11V13.69H41.03L42.86 17.32C42.8119 17.5448 42.6927 17.7482 42.52 17.9C42.3083 18.0709 42.0419 18.1597 41.77 18.15C41.6338 18.1469 41.4997 18.1161 41.3759 18.0593C41.2521 18.0026 41.1412 17.9211 41.05 17.82C40.9573 17.7266 40.884 17.6157 40.8342 17.4939C40.7845 17.3721 40.7592 17.2416 40.76 17.11ZM18.76 45.91C18.8642 46.1192 19.0276 46.2931 19.23 46.41C19.4292 46.5297 19.6576 46.592 19.89 46.59H40.54V47.16H14.91V20.5C15.2933 20.3451 15.6507 20.1326 15.97 19.87C16.2266 20.0889 16.5128 20.2707 16.82 20.41C17.29 20.6278 17.8019 20.7405 18.32 20.74C18.8382 20.7414 19.3503 20.6288 19.82 20.41C20.1285 20.2731 20.415 20.0911 20.67 19.87C20.9266 20.0889 21.2128 20.2707 21.52 20.41C21.99 20.6278 22.5019 20.7405 23.02 20.74C23.5383 20.7424 24.0506 20.6297 24.52 20.41C24.8285 20.2731 25.115 20.0911 25.37 19.87C25.6266 20.0889 25.9128 20.2707 26.22 20.41C26.69 20.6278 27.2019 20.7405 27.72 20.74C28.2382 20.7414 28.7503 20.6288 29.22 20.41C29.5285 20.2731 29.815 20.0911 30.07 19.87C30.3266 20.0889 30.6128 20.2707 30.92 20.41C31.39 20.6278 31.9019 20.7405 32.42 20.74C32.9383 20.7424 33.4506 20.6297 33.92 20.41C34.2285 20.2731 34.515 20.0911 34.77 19.87C35.0266 20.0889 35.3128 20.2707 35.62 20.41C36.09 20.6278 36.6019 20.7405 37.12 20.74C37.6382 20.7414 38.1503 20.6288 38.62 20.41C38.9316 20.2731 39.2214 20.0912 39.48 19.87C39.7939 20.1402 40.1526 20.3534 40.54 20.5V21.32H23.02C22.8506 21.3195 22.6829 21.3528 22.5266 21.4181C22.3703 21.4833 22.2287 21.5792 22.11 21.7C21.9917 21.818 21.8981 21.9583 21.8346 22.1128C21.7711 22.2673 21.7389 22.4329 21.74 22.6V40.22L18.83 44.59C18.6952 44.7845 18.6188 45.0135 18.61 45.25C18.5914 45.4802 18.6437 45.7105 18.76 45.91ZM19.39 17.11C19.3901 17.2492 19.3628 17.3872 19.3096 17.5158C19.2564 17.6445 19.1784 17.7615 19.08 17.86C18.9834 17.9643 18.8656 18.0468 18.7345 18.102C18.6035 18.1572 18.4621 18.1838 18.32 18.18C18.1795 18.1823 18.0401 18.1551 17.9109 18.0999C17.7817 18.0448 17.6655 17.963 17.57 17.86C17.4716 17.7615 17.3936 17.6445 17.3404 17.5158C17.2872 17.3872 17.2599 17.2492 17.26 17.11V13.69H19.42L19.39 17.11ZM24.09 17.11C24.0901 17.2492 24.0628 17.3872 24.0096 17.5158C23.9564 17.6445 23.8784 17.7615 23.78 17.86C23.6834 17.9643 23.5656 18.0468 23.4345 18.102C23.3035 18.1572 23.1621 18.1838 23.02 18.18C22.8795 18.1823 22.7401 18.1551 22.6109 18.0999C22.4817 18.0448 22.3655 17.963 22.27 17.86C22.1716 17.7615 22.0936 17.6445 22.0404 17.5158C21.9872 17.3872 21.9599 17.2492 21.96 17.11V13.69H24.09V17.11ZM28.79 17.11C28.7901 17.2492 28.7628 17.3872 28.7096 17.5158C28.6564 17.6445 28.5784 17.7615 28.48 17.86C28.3815 17.9619 28.2633 18.0427 28.1327 18.0977C28.0021 18.1527 27.8617 18.1807 27.72 18.18C27.5795 18.1823 27.4401 18.1551 27.3109 18.0999C27.1817 18.0448 27.0655 17.963 26.97 17.86C26.8716 17.7615 26.7936 17.6445 26.7404 17.5158C26.6872 17.3872 26.6599 17.2492 26.66 17.11V13.69H28.79V17.11ZM33.49 17.11C33.4901 17.2492 33.4628 17.3872 33.4096 17.5158C33.3564 17.6445 33.2784 17.7615 33.18 17.86C33.0834 17.9643 32.9656 18.0468 32.8345 18.102C32.7035 18.1572 32.5621 18.1838 32.42 18.18C32.2795 18.1823 32.1401 18.1551 32.0109 18.0999C31.8817 18.0448 31.7655 17.963 31.67 17.86C31.5716 17.7615 31.4936 17.6445 31.4404 17.5158C31.3872 17.3872 31.3599 17.2492 31.36 17.11V13.69H33.49V17.11ZM38.19 17.11C38.1901 17.2492 38.1628 17.3872 38.1096 17.5158C38.0564 17.6445 37.9784 17.7615 37.88 17.86C37.6783 18.0621 37.4055 18.177 37.12 18.18C36.9795 18.1823 36.8401 18.1551 36.7109 18.0999C36.5817 18.0448 36.4655 17.963 36.37 17.86C36.2716 17.7615 36.1936 17.6445 36.1404 17.5158C36.0872 17.3872 36.0599 17.2492 36.06 17.11V13.69H38.19V17.11ZM14.69 13.69V17.11C14.693 17.3849 14.589 17.6503 14.4 17.85C14.2989 17.9547 14.1777 18.0379 14.0437 18.0946C13.9097 18.1514 13.7655 18.1804 13.62 18.18C13.3679 18.1798 13.1238 18.0913 12.93 17.93C12.7514 17.7858 12.6278 17.5845 12.58 17.36L14.42 13.69H14.69ZM14.91 49.69H40.54V53.1C40.5385 53.1435 40.5268 53.186 40.506 53.2242C40.4852 53.2624 40.4557 53.2952 40.42 53.32C40.3944 53.3477 40.3635 53.3699 40.3292 53.3854C40.2948 53.4009 40.2577 53.4092 40.22 53.41H15.19C15.153 53.4105 15.1163 53.4037 15.082 53.39C15.0477 53.3763 15.0164 53.3559 14.99 53.33C14.9388 53.272 14.9104 53.1974 14.91 53.12V49.69ZM24.08 41.29C24.2285 41.0792 24.3088 40.8279 24.31 40.57V23.88H52.31V44.03H22.31L24.08 41.29ZM41.08 10.8V11.59H14.42V10.84C14.4258 10.6453 14.5043 10.4598 14.64 10.32C14.7111 10.2461 14.7966 10.1876 14.8912 10.148C14.9858 10.1084 15.0875 10.0887 15.19 10.09H40.26C40.4666 10.0908 40.6644 10.1735 40.81 10.32C40.9494 10.4582 41.0315 10.6439 41.04 10.84L41.08 10.8Z" fill="#252B33"/>
</svg>
