<svg width="64" height="64" viewBox="0 0 64 64" fill="none" xmlns="http://www.w3.org/2000/svg">
<mask id="path-1-inside-1" fill="white">
<path d="M9 29.7558C9 28.099 10.3431 26.7558 12 26.7558H19.7674C20.3197 26.7558 20.7674 27.2035 20.7674 27.7558V40.7326C20.7674 41.2849 20.3197 41.7326 19.7674 41.7326H12C10.3431 41.7326 9 40.3894 9 38.7326V29.7558Z"/>
</mask>
<path d="M9 29.7558C9 28.099 10.3431 26.7558 12 26.7558H19.7674C20.3197 26.7558 20.7674 27.2035 20.7674 27.7558V40.7326C20.7674 41.2849 20.3197 41.7326 19.7674 41.7326H12C10.3431 41.7326 9 40.3894 9 38.7326V29.7558Z" stroke="#252B33" stroke-width="7" mask="url(#path-1-inside-1)"/>
<mask id="path-2-inside-2" fill="white">
<path d="M55 29.7558C55 28.099 53.6569 26.7558 52 26.7558H44.2326C43.6803 26.7558 43.2326 27.2035 43.2326 27.7558V40.7326C43.2326 41.2849 43.6803 41.7326 44.2326 41.7326H52C53.6569 41.7326 55 40.3894 55 38.7326V29.7558Z"/>
</mask>
<path d="M55 29.7558C55 28.099 53.6569 26.7558 52 26.7558H44.2326C43.6803 26.7558 43.2326 27.2035 43.2326 27.7558V40.7326C43.2326 41.2849 43.6803 41.7326 44.2326 41.7326H52C53.6569 41.7326 55 40.3894 55 38.7326V29.7558Z" stroke="#252B33" stroke-width="7" mask="url(#path-2-inside-2)"/>
<path d="M48.5817 26.7558V24.0814C48.5817 14.9237 41.158 7.5 32.0003 7.5V7.5C22.8427 7.5 15.4189 14.9238 15.4189 24.0814V26.7558" stroke="#252B33" stroke-width="3.5"/>
<path d="M38.9534 52.4302V52.4302C43.4534 52.4302 47.2799 49.146 47.9622 44.698L48.5813 40.6628" stroke="#252B33" stroke-width="3.5"/>
<rect x="27.8662" y="49.9012" width="11.4767" height="6.12791" rx="3.06395" stroke="#F47342" stroke-width="3.5"/>
</svg>