<svg width="64" height="64" viewBox="0 0 64 64" fill="none" xmlns="http://www.w3.org/2000/svg">
<rect width="64" height="64" rx="32" fill="#F47342"/>
<path d="M32.0754 55.9723C30.5113 55.9755 28.9511 55.8115 27.4206 55.483C22.9302 54.5132 18.8289 52.1914 15.6479 48.8184L14.8691 47.9969V54.043C14.8691 54.4916 14.6968 54.9223 14.3892 55.243C14.0894 55.5432 13.6864 55.7121 13.2662 55.7138C13.0542 55.7157 12.844 55.6741 12.648 55.5917C12.452 55.5092 12.2743 55.3875 12.1252 55.2338C11.9736 55.0768 11.8539 54.8907 11.7731 54.6864C11.6923 54.482 11.6519 54.2634 11.6543 54.043V43.1046C11.6542 42.8879 11.6966 42.6734 11.779 42.4736C11.8614 42.2739 11.9822 42.093 12.1342 41.9415C12.2811 41.7868 12.457 41.6638 12.6515 41.5797C12.846 41.4957 13.055 41.4523 13.2662 41.4523H14.4888C15.0699 42.6275 15.7646 43.7408 16.5626 44.7754H16.4358L17.0697 45.5415C18.9235 47.7676 21.2294 49.5568 23.828 50.7856C26.4267 52.0144 29.256 52.6534 32.1206 52.6584C34.4917 52.6626 36.8433 52.2214 39.0575 51.3569C42.8776 49.8892 46.1604 47.2555 48.4575 43.8154C50.7845 40.3565 52.0257 36.2586 52.0165 32.0646C52.035 31.6434 52.2118 31.2455 52.5101 30.9534C52.8085 30.6613 53.2056 30.4973 53.6193 30.4954C54.0314 30.5022 54.4259 30.667 54.7242 30.9569C55.0228 31.2592 55.2004 31.6639 55.2222 32.0923C55.2209 36.8401 53.8408 41.4812 51.2557 45.4307C48.7184 49.363 45.0807 52.4277 40.8143 54.2277C38.0453 55.4026 35.0747 56.0051 32.0754 56V55.9723ZM10.6038 33.8185C10.3875 33.8199 10.1732 33.7764 9.97396 33.6907C9.77468 33.6051 9.59459 33.4789 9.44467 33.32C9.29338 33.153 9.17364 32.959 9.09148 32.7477C9.02468 32.5298 8.99409 32.302 9.00094 32.0738C8.9993 27.9123 10.0504 23.8206 12.0528 20.1939C14.0387 16.5925 16.91 13.58 20.3842 11.4524C23.84 9.34897 27.7791 8.21224 31.8037 8.15697H32.1116C36.0461 8.1606 39.9134 9.19696 43.3409 11.1662C45.5312 12.4318 47.5066 14.0495 49.191 15.957L49.9879 16.88V9.74466C49.9798 9.51569 50.0136 9.28717 50.0875 9.0708C50.1688 8.86177 50.2887 8.67062 50.4407 8.50774C50.595 8.34975 50.776 8.22152 50.975 8.12928C51.169 8.04217 51.3789 7.99813 51.5908 8.00006C51.8054 8.00103 52.0177 8.04492 52.2157 8.12928C52.4122 8.22525 52.5901 8.35659 52.7409 8.51698C52.8935 8.67943 53.0135 8.87069 53.0941 9.08004C53.1659 9.29058 53.1996 9.51262 53.1937 9.73542V20.8123C53.1948 21.2511 53.0255 21.6726 52.7228 21.9846C52.5796 22.1393 52.407 22.2624 52.2154 22.3465C52.0239 22.4306 51.8175 22.474 51.6089 22.4739H49.68C48.9428 20.9993 48.0304 19.6228 46.9632 18.3754C46.1853 17.4788 45.334 16.6512 44.4185 15.9016L44.0473 15.6062L43.8752 15.4677H43.8027L43.4948 15.2554C40.1844 12.8524 36.221 11.5617 32.1569 11.5631C31.5773 11.5631 30.9886 11.5631 30.409 11.6462C25.7587 12.0854 21.4099 14.1842 18.1292 17.5723L17.604 18.1354V18.1908L17.5135 18.2831C14.1598 22.084 12.3077 27.0173 12.3154 32.1292C12.3302 32.3646 12.2963 32.6005 12.2158 32.8215C12.1414 33.0292 12.024 33.2181 11.8716 33.3754C11.7271 33.5429 11.5476 33.6754 11.3464 33.7631C11.1076 33.8455 10.8528 33.8677 10.6038 33.8277V33.8185Z" fill="white"/>
<path d="M33.3535 20.0785C33.3017 20.0267 33.2498 19.9748 33.1876 19.9333C33.1669 19.923 33.1565 19.9022 33.1358 19.8815C33.0217 19.7985 32.9076 19.7259 32.7728 19.6741C32.7624 19.6637 32.7521 19.6533 32.7313 19.6533C32.7106 19.643 32.7002 19.6533 32.6795 19.643C32.4098 19.5496 32.1195 19.5289 31.8395 19.5911C31.8187 19.5911 31.798 19.6015 31.7772 19.6015C31.6424 19.6326 31.5076 19.6845 31.3832 19.7674C31.3728 19.7674 31.3728 19.7778 31.3624 19.7778C31.2898 19.8296 31.2069 19.8815 31.1446 19.9333C31.1135 19.9645 31.0928 19.9956 31.0617 20.0267C31.0513 20.0371 31.0306 20.0474 31.0202 20.0578L22.7239 29.3911C22.1535 30.0341 22.2158 31.0193 22.8587 31.5896C23.5017 32.16 24.4869 32.1082 25.0572 31.4548L30.6365 25.1808V42.8933C30.6365 43.7541 31.3313 44.4489 32.1921 44.4489C33.0528 44.4489 33.7476 43.7541 33.7476 42.8933V25.2015L39.3269 31.4859C39.638 31.8282 40.0632 32.0045 40.4883 32.0045C40.7891 32.0055 41.0838 31.9195 41.3367 31.7569C41.5897 31.5942 41.7903 31.3619 41.9141 31.0878C42.038 30.8137 42.08 30.5097 42.0349 30.2123C41.9898 29.9149 41.8597 29.6369 41.6602 29.4119L33.3535 20.0785V20.0785Z" fill="white"/>
</svg>
