<svg width="64" height="64" viewBox="0 0 64 64" fill="none" xmlns="http://www.w3.org/2000/svg">
<rect x="18" y="8.5" width="28.3846" height="45" rx="4.5" stroke="#252B33" stroke-width="3"/>
<path d="M27.5769 10.6924H36.8077" stroke="#252B33" stroke-width="3" stroke-linecap="round"/>
<path d="M46.179 28H18.0199C16.0759 28 14.5 29.567 14.5 31.5V52.5C14.5 54.433 16.0759 56 18.0199 56H46.179C48.123 56 49.6989 54.433 49.6989 52.5V31.5C49.6989 29.567 48.123 28 46.179 28Z" fill="white"/>
<path d="M17 31.5C17 30.9598 17.4445 30.5 18.0199 30.5H46.179C46.7544 30.5 47.1989 30.9598 47.1989 31.5V52.5C47.1989 53.0402 46.7544 53.5 46.179 53.5H18.0199C17.4445 53.5 17 53.0401 17 52.5V31.5ZM18.0199 25.5C14.7091 25.5 12 28.1725 12 31.5V52.5C12 55.8275 14.7091 58.5 18.0199 58.5H46.179C49.4898 58.5 52.1989 55.8275 52.1989 52.5V31.5C52.1989 28.1725 49.4898 25.5 46.179 25.5H18.0199Z" fill="#252B33" stroke="white" stroke-width="2" stroke-linecap="round" stroke-linejoin="round"/>
<path fill-rule="evenodd" clip-rule="evenodd" d="M13 37.625C13 36.7966 13.6716 36.125 14.5 36.125H49.6989C50.5273 36.125 51.1989 36.7966 51.1989 37.625C51.1989 38.4534 50.5273 39.125 49.6989 39.125H14.5C13.6716 39.125 13 38.4534 13 37.625Z" fill="#252B33"/>
<path fill-rule="evenodd" clip-rule="evenodd" d="M18.2798 47.25C18.2798 46.4216 18.9514 45.75 19.7798 45.75H30.3394C31.1679 45.75 31.8394 46.4216 31.8394 47.25C31.8394 48.0784 31.1679 48.75 30.3394 48.75H19.7798C18.9514 48.75 18.2798 48.0784 18.2798 47.25Z" fill="#F47342"/>
</svg>