<svg width="64" height="64" viewBox="0 0 64 64" fill="none" xmlns="http://www.w3.org/2000/svg">
<rect x="7.75" y="11.75" width="48.5" height="32.5" rx="2.25" stroke="#252B33" stroke-width="3.5"/>
<path d="M32 45V50.5" stroke="#252B33" stroke-width="3.5"/>
<path d="M22 52H42" stroke="#252B33" stroke-width="3.5" stroke-linecap="round"/>
<path d="M33.8499 17.4091L33.9959 17.5102C34.95 18.1707 36.0583 18.5741 37.2138 18.6814L37.3906 18.6978C38.7384 18.823 39.8675 19.7704 40.2248 21.076L40.2717 21.2472C40.578 22.3665 41.1677 23.388 41.9839 24.2129L42.1088 24.3391C43.0608 25.3013 43.3167 26.7529 42.7512 27.9827L42.6771 28.144C42.1922 29.1983 41.9874 30.3599 42.0824 31.5165L42.0969 31.6934C42.2077 33.0424 41.4707 34.3189 40.247 34.8975L40.0865 34.9734C39.0374 35.4694 38.1339 36.2276 37.4632 37.1746L37.3606 37.3195C36.5783 38.4241 35.1933 38.9282 33.884 38.5849L33.7122 38.5399C32.5897 38.2455 31.4103 38.2455 30.2878 38.5399L30.116 38.5849C28.8067 38.9282 27.4217 38.4241 26.6394 37.3195L26.5368 37.1746C25.8661 36.2276 24.9626 35.4694 23.9135 34.9734L23.753 34.8975C22.5293 34.3189 21.7923 33.0424 21.9031 31.6934L21.9176 31.5165C22.0126 30.3599 21.8078 29.1983 21.3229 28.144L21.2488 27.9827C20.6833 26.7529 20.9392 25.3013 21.8912 24.3391L22.0161 24.2129C22.8323 23.388 23.422 22.3665 23.7283 21.2472L23.7752 21.076C24.1325 19.7704 25.2616 18.823 26.6094 18.6978L26.7862 18.6814C27.9417 18.5741 29.05 18.1707 30.0041 17.5102L30.1501 17.4091C31.263 16.6386 32.737 16.6386 33.8499 17.4091Z" stroke="#F47342" stroke-width="3.5"/>
<path d="M29 28.381L30.9308 30.2592C31.3437 30.6609 32.0097 30.6316 32.3857 30.1952L36 26" stroke="#F47342" stroke-width="3.5" stroke-linecap="round"/>
</svg>